<?xml version="1.0"?>
<svg xmlns="http://www.w3.org/2000/svg" version="1.2" baseProfile="tiny" width="800" height="484" viewBox="0 0 800 484" stroke-linecap="round" stroke-linejoin="round">
<g id="neighborhoods">
<path d="M 177.6 346.45 197.54 356.11 195.91 362.38 196.94 363.29 196.41 371.71 185.84 367.02 181.17 364.99 179.93 364.47 178.24 363.62 176.31 362.91 172.91 361.59 171.59 361.12 168.38 359.84 167.64 359.58 167.22 359.49 165.24 359.36 162.1 359.23 161.8 359.27 160.23 359.24 158.66 359.14 158.91 355.86 159.06 352.61 159.47 347.18 159.54 346.77 159.57 346.27 159.35 345.68 159.84 340.99 177.6 346.45 Z" id="1"/>
<path d="M 148.47 338.81 148.15 342.27 148.15 343.48 147.87 343.79 147.27 353.54 145.83 353.53 141.49 353.38 137.64 353.49 137.53 353.73 136.15 353.68 135.74 353.57 135.27 352.99 133.89 353.85 133.38 353.86 132.74 354.12 127.9 356.89 127.9 351.47 127.9 349.1 127.75 345.36 130.39 341.15 134.29 338.96 137.62 338.37 148.47 338.81 Z" id="2"/>
<path d="M 159.84 340.99 159.35 345.68 159.57 346.27 159.54 346.77 159.47 347.18 159.06 352.61 158.91 355.86 158.66 359.14 158.44 362.51 158.05 367.32 157.96 368.86 161.14 369 161.12 369.4 161.01 370.06 160.61 370.48 160.56 370.61 160.62 370.73 160.77 370.8 160.31 370.76 154.95 370.63 154.68 370.55 154.67 370.98 153.91 370.79 153.42 370.73 152.86 370.69 152.59 370.71 152.44 370.77 152.04 371.05 151.85 371.23 151.6 371.53 151.42 371.85 151.28 372.6 150.81 380.37 150.65 380.27 150.65 381.38 144.06 375.13 146.69 374.99 146.9 371.38 147.19 367.38 147.26 365.86 147.33 365.15 147.98 365.17 148.56 356.99 148.75 353.59 147.27 353.54 147.87 343.79 148.15 343.48 148.15 342.27 148.47 338.81 154.39 339.74 159.84 340.99 Z" id="3"/>
<path d="M 48.36 364.92 46.94 370.35 45.42 375.97 44.67 378.91 43.44 383.33 43.03 385 41.87 389.18 41.67 390.21 40.74 393.51 40.14 395.81 39.95 396.76 38.39 396.53 36.79 396.34 35.35 396.08 33.92 395.78 32.36 395.52 29.83 394.86 27.01 393.9 25.2 398.11 23.87 401.01 22.05 400.33 18.02 398.62 17.79 398.84 17.11 399.36 16.98 399.53 16.88 399.82 16.85 400.11 16.89 400.5 17.12 401.14 17.1 401.3 16.99 401.52 16.33 402.27 12.68 409.29 8.24 406.7 6.34 404.9 4.93 403.22 3.52 400.44 2.84 397.61 2.64 396.03 7.99 388.69 11.05 384.64 12.31 383.1 13.23 381.78 14.07 380.69 12.9 380 11.75 379.27 13.67 376.85 14.63 375.56 17.31 372.23 17.51 372.07 18.44 370.81 19.51 369.69 20.39 368.32 21.45 367.1 23.37 364.67 24.28 363.34 25.29 362.05 26.19 361.03 27.17 359.71 29.14 357.26 30.12 355.92 31.13 354.71 32.08 353.41 33.1 352.17 35.14 349.65 37.1 347.09 37.22 347.31 38.21 349.85 39.1 352.03 41.04 356.53 42.2 359.42 42.76 360.73 42.9 361.15 43.03 361.39 43.19 361.63 43.48 361.94 44.16 362.47 45.03 363.02 46.98 364.11 48.36 364.92 Z" id="4"/>
<path d="M 200.41 357.77 200.36 357.87 216.22 367.08 227.83 374.3 233.32 377.5 237.65 379.97 241.72 381.99 242.44 382.31 242.53 388.39 242.68 389.87 242.61 390.58 241.56 398.91 241.11 403.05 240.91 404.1 240.32 408.66 239.9 412.69 239.38 416.78 238.95 418.36 239.03 418.7 237.28 416.87 236.53 416.27 235.77 415.86 235.43 415.71 234.81 415.51 234.11 415.36 232.78 415.28 231.54 415.25 230.79 415.28 229.47 415.9 227.86 415.65 226.85 415.55 225.88 415.28 224.73 414.85 223.75 414.27 222.01 413.15 217.17 409.92 214.7 408.36 213.6 407.7 212.53 407.08 209.25 405.33 208.48 405.01 207.74 404.74 207.3 404.51 205.58 403.48 204.85 402.98 204.5 402.67 203.98 402.12 202.49 401.18 201.62 400.57 200.42 399.51 199.8 399.02 198.61 398.2 196.24 396.74 196.58 396.33 195.92 395.94 195.85 395.48 195.96 394.81 196.06 394.46 196.48 391.02 196.55 388.55 197.42 375.01 197.39 374.83 197.31 374.67 197.07 374.37 196.93 374.29 196.61 374.19 196.32 374.16 196.41 371.71 196.94 363.29 195.91 362.38 197.54 356.11 200.41 357.77 Z" id="5"/>
<path d="M 86.42 350.73 85.75 351.61 84.19 353.79 83.19 355.03 82.47 356.15 81.76 357.01 81.5 357.38 72.48 352.29 69.58 350.71 67.08 349.29 66.05 348.75 66.37 348.51 66.45 348.37 66.51 348.13 66.53 347.7 66.58 347.54 66.7 347.31 68.44 344.88 69.83 343.06 72.53 339.26 76.13 341.9 77.51 342.8 80.01 344.67 82.22 346.23 82.61 346.62 83.9 347.33 84.6 347.88 84.99 348.25 85.37 348.78 86.42 350.73 Z" id="6"/>
<path d="M 97.36 310.92 93.28 315.58 88.11 321.56 87.83 321.99 87.59 322.29 87.4 322.51 84.98 320.95 83.54 320.19 82.19 319.36 80.88 318.46 76.85 316.12 77.05 315.9 76.43 315.23 76.51 315.11 76.67 315.17 76.75 315.01 76.96 315.1 77.48 313.88 77.56 313.13 78.39 311.12 78.3 311.02 78.46 310.89 78.64 310.1 78.83 309.72 79.42 308.99 80.17 308.33 81.33 307.23 81.79 306.57 82.43 305.54 82.73 304.85 82.76 304.46 81.66 303.69 80.36 302.83 78.94 301.75 78.22 300.62 78.41 300.17 78.99 299.91 79.56 299.4 79.92 298.79 80.29 299.02 80.47 299.28 81.42 299.9 84.94 302.37 87.02 303.76 90.77 306.37 92.28 307.46 95.34 309.44 97.36 310.92 Z" id="7"/>
<path d="M 196.41 371.71 196.32 374.16 196.61 374.19 196.93 374.29 197.07 374.37 197.31 374.67 197.39 374.83 197.42 375.01 196.55 388.55 196.48 391.02 196.06 394.46 195.96 394.81 195.85 395.48 195.92 395.94 196.58 396.33 196.24 396.74 193.15 394.78 192.8 394.66 191.76 394.63 191.55 394.59 191.38 394.51 191.1 394.26 190.25 393.29 189.81 392.92 189.21 392.56 186.77 391.22 184.33 390.17 182.7 389.52 181.18 388.84 175.14 386.29 172.13 385.05 171.3 384.78 170.73 384.69 170.16 384.55 169.55 384.29 169 383.99 168.57 383.71 167.69 383.07 166.98 382.73 166.46 382.57 165.02 382.24 163.92 382.14 162.67 382.09 160.36 381.79 159.34 381.73 159.69 377.19 159.61 376.1 159.34 374.59 159.09 373.99 158.83 373.53 158.59 373.19 158.02 372.48 157.76 372.24 156.86 371.57 156.33 371.25 155.66 370.9 154.95 370.63 160.31 370.76 160.77 370.8 160.62 370.73 160.56 370.61 160.61 370.48 161.01 370.06 161.12 369.4 161.14 369 157.96 368.86 158.05 367.32 158.44 362.51 158.66 359.14 160.23 359.24 161.8 359.27 162.1 359.23 165.24 359.36 167.22 359.49 167.64 359.58 168.38 359.84 171.59 361.12 172.91 361.59 176.31 362.91 178.24 363.62 179.93 364.47 181.17 364.99 185.84 367.02 196.41 371.71 Z" id="8"/>
<path d="M 19.51 369.69 18.44 370.81 17.51 372.07 17.31 372.23 14.63 375.56 13.67 376.85 11.75 379.27 12.9 380 14.07 380.69 13.23 381.78 12.31 383.1 11.05 384.64 7.99 388.69 2.64 396.03 2.34 393.64 2.18 390.56 2.26 385.85 2.44 380.95 2.67 376.66 2.88 373.69 2.65 369.52 7.17 365.24 9.22 363.4 9.38 363.2 9.59 363.09 10.08 362.64 10.38 362.25 13.97 365.24 15.23 366.26 16.39 367.14 17.59 368.19 18.9 369.25 19.51 369.69 Z" id="9"/>
<path d="M 61.1 347.18 61.92 348.8 62.38 349.88 63.63 352.32 64.23 353.71 64.82 354.96 66.15 357.68 67.34 360.22 68.68 362.83 69.33 364.25 69.49 364.74 69.21 364.89 67.33 365.67 65.64 366.28 65.12 366.36 59.96 366.77 58.21 366.88 53.6 367.24 52.85 367.23 52.41 367.15 52.13 367.06 51.26 366.64 48.36 364.92 49.22 361.84 49.92 358.96 50.36 357.51 51.22 357.65 51.27 356.23 49.27 355.87 47.39 355.45 49.42 349.85 50.73 350.13 51.14 348.74 51.49 347.34 51.7 346.66 52.57 345.55 53.11 344.64 53.28 344.63 53.43 344.48 54.11 343.42 55.72 344.27 59.64 346.5 61.1 347.18 Z" id="10"/>
<path d="M 185.08 303.63 180.55 317.52 179.24 321.69 177.83 325.77 176.47 329.87 174.64 336 177.6 346.45 159.84 340.99 154.39 339.74 148.47 338.81 137.62 338.37 137.4 333.82 137.41 332.93 137.73 332.54 138.13 331.34 138.59 329.77 139.12 328.21 140.05 325.07 141.13 321.66 144.03 322.33 147.56 323.11 150.32 323.76 149.24 327.39 153.31 328.33 155.04 328.7 167.38 331.5 169.31 325.01 170.32 321.79 170.78 320.16 171.29 318.54 172.23 315.3 172.78 313.66 173.26 312.05 171.71 311.69 170.28 311.41 172.24 304.93 172.51 303.95 173.21 301.67 173 301.39 173.39 301.5 173 301.1 172.74 300.77 179.14 302.22 184.87 303.49 185.08 303.63 Z" id="11"/>
<path d="M 105.92 340.35 115.92 347.12 114.77 348.44 118.73 350.94 119.32 351.35 119.8 351.75 121.7 351.66 127.9 351.47 127.9 356.89 127.94 358.71 128.03 359.92 127.77 359.67 127.92 360.4 128.48 364.11 128.97 368.23 128.9 370.12 124.25 370.2 121.77 370.28 121.82 369.2 122.5 369.23 122.48 367.24 121.36 366.55 120.98 360.87 120.12 360.66 118.62 360.37 116.6 359.9 111.38 358.75 109.8 363.99 109.42 365.19 109.23 366.01 106.27 364.45 105.22 363.81 103.92 363.07 103.09 362.64 98.67 360.19 97.34 359.58 95.45 358.55 93.94 357.59 92.42 356.7 91.36 355.97 89.91 355.05 89.65 354.79 88.97 354.32 87.89 353.41 87.31 352.51 87.15 352.14 86.42 350.73 86.56 350.61 87.72 349.16 90.35 346.13 92.11 344.3 93.64 342.62 96.89 338.88 98.13 337.58 99.52 336.02 103.13 338.46 104.28 339.28 105.92 340.35 Z" id="12"/>
<path d="M 66.05 348.75 67.08 349.29 69.58 350.71 72.48 352.29 81.5 357.38 81.76 357.01 82.47 356.15 83.19 355.03 84.19 353.79 85.75 351.61 86.42 350.73 87.15 352.14 87.31 352.51 87.89 353.41 88.97 354.32 89.65 354.79 89.91 355.05 91.36 355.97 92.42 356.7 93.94 357.59 95.45 358.55 97.34 359.58 98.67 360.19 103.09 362.64 103.92 363.07 105.22 363.81 106.27 364.45 109.23 366.01 109.13 366.42 108.55 368.1 108.08 369.78 106.19 369.36 105.86 369.36 104.5 368.53 103.76 369.61 102.87 370.81 101.3 372.85 100.09 374.48 99.48 373.88 98.41 372.97 97.57 373.67 96.57 374.42 95.19 375.38 92.19 377.26 90.39 378.32 89.24 379.04 87.94 379.8 85.33 381.23 84.29 381.84 83.18 382.42 81.92 383.15 80.1 384.12 78.66 384.75 78.51 384.58 78.05 383.74 76.65 380.74 76.48 380.28 75.8 378.92 75.08 377.58 74.45 376.14 73.72 374.8 73.04 373.38 71.35 374.01 70.66 372.61 69.08 369.21 68.95 368.62 68.96 368.11 69.06 367.6 69.33 367.03 69.53 366.4 69.56 365.4 69.49 364.74 69.33 364.25 68.68 362.83 67.34 360.22 66.15 357.68 64.82 354.96 64.23 353.71 63.63 352.32 62.38 349.88 61.92 348.8 61.1 347.18 60.25 345.73 59.94 345.26 60.38 345.59 65.17 348.22 66.05 348.75 Z" id="13"/>
<path d="M 86.15 274.36 86.14 275.56 86.18 276.34 86.62 277.83 86.86 278.81 86.22 279.85 85.74 280.75 85.38 281.96 85.32 283.06 85.03 283.86 84.98 284.22 84.74 284.8 84.72 284.9 84.46 285.44 84.42 286.39 83.68 287.59 83.5 288.05 83.48 288.6 83.39 289.21 83.22 289.76 83.16 290.24 83.03 290.54 82.58 291.12 82.31 291.67 82.31 292.25 82.56 293.06 82.52 293.56 82.01 294.34 81.33 294.86 80.73 295.62 80.57 296.26 80.39 297.4 80.21 298.37 79.92 298.79 79.56 299.4 78.99 299.91 78.41 300.17 78.22 300.62 78.94 301.75 80.36 302.83 81.66 303.69 82.76 304.46 82.73 304.85 82.43 305.54 81.79 306.57 81.33 307.23 80.17 308.33 79.42 308.99 78.83 309.72 78.64 310.1 78.46 310.89 78.3 311.02 77.67 310.57 77.07 309.86 76.71 309.57 72.2 306.57 70.53 305.43 70.1 305.82 70.32 305.97 68.55 307.63 65.24 305.39 63.74 304.43 60.32 302.08 58.03 300.6 56.56 299.59 55.44 298.76 57.38 298.27 59.1 298.25 60.28 288.78 60.79 284.06 60.97 282.82 61.1 281.51 61.09 281.25 62.37 270.15 63.13 263.93 64.07 255.48 64.44 252.67 65.06 247.04 65.4 244.77 65.45 244.37 65.41 244.02 67.41 244.15 68.24 244.13 68.67 244.15 69.62 244.26 71.48 244.39 73.28 244.6 75.71 244.55 77.26 244.38 78.32 244.19 79.2 243.96 79.89 243.73 82.23 242.77 84.78 241.65 85.69 241.35 86.4 241.21 87.73 241.04 88.81 240.97 89.79 240.97 88.19 244.24 88.16 245.27 87.83 249.89 86.91 256.19 86.74 260.29 86.26 263.13 86.25 267.5 86.19 269.27 86.65 273.93 85.55 274.4 86.15 274.36 Z" id="14"/>
<path d="M 185.35 303.55 185.08 303.63 184.87 303.49 179.14 302.22 172.74 300.77 163.96 298.77 150.6 295.74 149.38 295.23 148.92 294.87 149.56 293.29 149.06 286.51 148.94 284.12 148.66 280.85 148.66 280.43 148.62 279.42 148.33 276.66 147.94 271.71 147.7 269.23 148.79 269.19 150.67 269.06 152.21 268.82 153.27 268.57 154.5 268.15 162.47 265.1 165.91 263.74 169.83 262.28 170.8 261.99 173.08 261.44 177.08 260.53 178.78 266.1 179.67 268.46 186.01 289.24 187.57 295.47 186.19 299.81 185.8 301.83 185.53 303.02 185.35 303.55 Z" id="15"/>
<path d="M 127.66 287.74 124.06 288.01 118.4 288.3 118.2 288.36 117.93 288.56 117.58 288.62 116.87 288.43 113.42 288.65 111.04 288.77 110.98 287.81 109.7 287.82 108.79 287.71 107.89 287.55 107.45 287.41 105.76 286.74 105.02 286.49 104.86 284.36 104.27 276.75 103.98 273.35 103.74 270.17 104.08 270.12 104.46 269.94 105.94 268.76 107.88 267.02 109.03 266.07 110.07 265.27 110.89 265.1 110.57 261.57 120.11 260.92 125.46 260.63 126.67 275.13 127.27 283.01 127.56 286.19 127.55 286.63 127.66 287.74 Z" id="16"/>
<path d="M 44.44 308.86 44.88 309.92 46.15 313.48 47.09 316.29 47.64 317.48 48.33 318.75 48.54 319.2 49.15 320.3 49.21 320.46 49.73 321.43 49.95 321.77 50.48 322.43 51.64 323.54 51.1 324 50.4 324.7 47.7 327.25 47.46 327.02 47.13 326.62 46.68 326.19 44.84 324.67 43.55 323.65 39.79 320.58 38.57 319.52 36.43 317.75 34.77 316.45 32.28 314.44 33.62 313.16 33.79 313.09 33.97 313.14 35.03 314.01 36.02 313.07 36.12 313 36.22 312.99 36.4 313.06 37.44 313.94 38.6 312.9 42.17 309.55 40.89 308.48 43.72 308.82 44.44 308.86 Z" id="17"/>
<path d="M 33.1 352.17 32.08 353.41 31.13 354.71 30.12 355.92 29.14 357.26 27.17 359.71 26.19 361.03 25.29 362.05 24.28 363.34 23.37 364.67 21.45 367.1 20.39 368.32 19.51 369.69 18.9 369.25 17.59 368.19 16.39 367.14 15.23 366.26 13.97 365.24 10.38 362.25 11.45 361.12 14.8 357.94 17.25 355.8 18.4 354.68 20.77 352.43 21.88 351.29 24.27 349.06 25.48 348.06 26.66 346.95 27.87 347.98 30.35 349.89 33.1 352.17 Z" id="18"/>
<path d="M 61.87 402.65 61.69 401.39 61.39 398.54 61.26 396.95 64.78 396.66 70.01 396.29 71.22 396.18 71.85 396.08 73.9 395.63 74.99 395.35 78.91 394.19 82.48 392.86 83.27 394.3 84.63 397.2 85.63 399.02 85.55 399.06 85.82 399.58 86.19 400.46 82.15 400.93 72.68 401.73 68.88 402.02 67.08 402.22 61.87 402.65 Z" id="19"/>
<path d="M 313.42 179.89 312.5 180.51 307.88 183.45 307.37 183.71 306.82 184.05 303.23 186.36 298.81 189.14 295.7 191.14 291.28 193.89 289.3 195.18 284.88 197.97 283.71 198.67 279.41 201.45 273.74 204.97 268.71 208.22 263.09 211.74 261.61 212.61 260.49 213.39 257.75 214.84 256.05 215.63 247.94 218.91 246.45 219.58 241.93 221.37 236.38 223.69 234.75 224.3 228.81 226.73 226.46 227.66 225.27 228.09 222.13 229.02 220.32 229.44 214.58 230.5 207.08 231.8 204.83 232.18 203.64 232.31 201.13 232.22 199.52 232.05 198.55 231.89 197.16 231.56 196.08 231.25 195.31 230.99 194.99 230.95 194.85 230.96 194.76 230.82 194.67 230.74 194.38 230.59 193.29 230.1 192.78 229.93 192.31 229.83 191.19 229.75 190.45 229.75 180.96 232.6 179.19 227.75 178.74 226.43 177.16 222.42 176.05 222.67 175.25 222.74 174.91 222.81 169.96 224.12 167.91 224.6 167.7 224.63 166.67 224.48 165.6 224.7 165.42 224.64 165.44 224.49 164.25 224.14 164.24 224.11 165.44 224.45 165.79 224.37 165.82 224.17 165.98 223.93 166.04 223.7 165.98 223.37 165.88 221.89 165.89 221.55 165.98 221.44 169.74 220.54 169.98 220.45 170.08 220.37 170.12 220.31 169.91 209.26 169.93 208.17 170 207.67 170.14 207.19 170.39 206.71 170.78 206.07 171.2 205.51 171.28 205.27 171.27 201.82 171.21 197.74 171.23 195.99 171.13 191.25 171.14 190.99 171.18 190.89 171.27 190.85 172.06 190.87 174.93 190.82 175.14 190.86 175.21 191 175.18 191.79 175.24 193.62 175.27 193.77 175.32 193.84 175.39 193.87 176.75 193.87 177.97 193.9 178.19 193.97 178.35 194.15 178.54 194.79 178.79 195.15 178.97 195.3 179.12 195.58 179.39 195.87 179.53 196.11 179.65 196.39 179.63 196.5 179.5 196.71 179.5 196.83 179.65 196.91 179.8 196.94 179.87 196.93 180 196.82 180.29 196.71 180.61 196.69 180.84 196.75 181.08 197.07 181.18 197.12 181.69 197.15 181.78 197.26 181.82 197.42 181.8 197.68 181.75 197.75 181.64 197.81 181.45 197.8 181.21 197.84 180.96 198.03 180.85 198.28 180.75 198.38 180.53 198.75 180.53 198.9 180.59 199.29 180.65 199.41 180.87 199.62 181.07 199.68 181.4 199.69 181.52 199.62 181.72 199.4 181.83 199.4 181.94 199.49 182.06 201.65 182.11 203.89 182.17 204.15 182.33 204.54 182.6 205.05 183.44 205.83 186.6 208.46 187.47 209.22 187.57 209.26 187.72 209.25 187.82 209.19 188.46 208.6 188.69 208.41 191.12 207.65 192.7 207.13 192.96 207.04 193.14 206.92 194.47 205.69 194.58 205.5 194.67 205.06 194.67 204.92 194.58 204.81 194.26 204.56 194.23 204.45 194.27 204.38 195.01 203.69 195.14 203.67 195.25 203.71 196.62 204.9 196.7 205.05 196.68 205.13 194.71 206.86 192.46 208.9 192.28 208.98 190.44 209.54 189.72 209.78 189.6 209.85 189.06 210.32 189 210.42 189.02 210.54 190.87 212.08 190.96 212.12 191.21 211.95 191.31 211.92 191.42 211.98 192.46 212.88 193.83 214.01 194.01 214.09 194.15 214.08 194.58 213.95 194.92 213.78 195.05 213.64 195.05 213.55 194.97 213.48 194.97 213.41 195.91 212.48 198.39 210.24 198.69 210.13 198.79 210.07 198.85 209.97 198.83 209.72 198.43 208.71 198.35 208.41 198.39 208.33 198.54 208.26 198.91 208.17 199 208.17 199.13 208.24 199.2 208.42 200.44 212.34 200.42 212.43 200.35 212.52 199.5 213.25 199.39 213.41 199.36 213.71 199.42 213.91 199.53 214.07 199.69 214.16 200 214.11 200.83 213.82 201.95 213.37 206.58 211.73 206.82 211.54 206.94 211.25 207 211.19 207.55 211.01 208.4 210.83 208.56 210.93 208.78 210.9 209.65 210.54 210.46 210.06 210.63 210.02 211.05 210.05 212.16 209.66 212.42 209.52 212.64 209.33 212.87 209.17 213.12 209.06 214.3 208.77 215.23 208.45 217.06 207.71 217.79 207.37 217.88 207.11 218.04 206.95 218.71 206.6 219.23 206.55 221.19 205.95 222.06 205.64 223.97 204.85 228.69 202.81 232.49 201.09 243.09 196.04 249.12 192.97 250.48 192.15 251.25 191.76 251.33 191.65 251.4 191.33 251.45 191.24 251.59 191.16 252.57 190.83 253.09 190.46 253.19 190.41 253.58 190.4 253.8 190.31 253.85 190.24 253.85 190.12 253.64 189.73 253.67 189.53 253.74 189.48 253.92 189.48 254.02 189.54 254.3 189.91 254.38 189.97 254.53 189.98 254.67 189.95 255.14 189.65 255.24 189.57 255.25 189.42 255.04 189.11 254.96 188.74 255.11 188.52 255.3 188.37 255.52 188.33 255.98 188.37 256.23 188.35 256.73 188.18 256.95 188.16 257.06 188.2 257.19 188.37 257.25 188.4 257.37 188.42 257.82 188.26 265.56 183.79 270.88 180.52 277.94 175.92 279.04 175.16 280.93 173.79 281.03 173.76 281.95 173.17 284.91 171.05 285.38 170.74 287.57 169.13 288.73 168.1 288.77 167.93 288.87 167.74 289 167.67 289.04 167.48 289.46 167.07 289.79 166.56 289.83 166.4 289.75 166.22 289.11 165.57 289.03 165.42 289.03 164.93 289.18 164.96 289.28 164.94 289.64 164.81 290.47 164.26 290.88 164.09 291.61 163.64 292.67 162.84 293.31 162.4 293.51 162.18 293.66 161.92 293.62 161.49 293.51 161.42 293.34 161.4 293.37 161.34 293.56 161.27 294.3 161.27 294.49 161.33 295.58 162.45 295.78 162.63 295.88 162.66 295.98 162.57 295.98 162.44 295.9 162.33 295.71 162.26 295.61 162.19 295.59 162.08 295.67 162.02 295.85 162 295.95 162.04 296.12 162.38 296.2 162.43 296.29 162.44 296.95 162.02 301.86 158.13 304.06 156.33 304.9 155.51 305.33 155.16 305.35 155.18 304.9 155.55 305.71 156.22 306.12 155.87 308.24 157.65 309.78 158.87 310.61 159.65 310.86 159.94 311.11 160.27 311.37 160.74 311.54 161.12 311.67 161.76 311.74 162.31 311.91 164.6 312.21 167.8 313.42 179.89 Z" id="20"/>
<path d="M 99.35 285.73 99.71 286.37 104.08 287.88 104.3 290.72 107.56 290.6 109.36 290.46 109.5 292.05 111.29 291.92 112.22 291.88 112.56 291.9 112.71 291.95 113.07 292.23 113.15 292.33 113.27 293.15 111.62 294.99 111.5 295.09 109.97 296.77 106.37 300.84 105.25 302.07 97.36 310.92 95.34 309.44 92.28 307.46 90.77 306.37 87.02 303.76 84.94 302.37 81.42 299.9 80.47 299.28 80.29 299.02 79.92 298.79 80.21 298.37 80.39 297.4 80.57 296.26 80.73 295.62 81.33 294.86 82.01 294.34 82.52 293.56 82.56 293.06 82.31 292.25 82.31 291.67 82.58 291.12 83.03 290.54 83.16 290.24 83.22 289.76 83.39 289.21 83.48 288.6 83.5 288.05 83.68 287.59 84.42 286.39 84.46 285.44 84.72 284.9 89.87 285.36 90.45 285.39 90.96 285.4 97.22 285.23 97.73 285.28 98.04 285.34 98.55 285.47 99.35 285.73 Z" id="21"/>
<path d="M 108.85 240.12 108.87 240.89 109.3 246.53 109.38 248.15 110.57 261.57 110.89 265.1 110.07 265.27 109.03 266.07 107.88 267.02 105.94 268.76 104.46 269.94 104.08 270.12 103.74 270.17 103.98 273.35 94.91 273.88 93.09 273.98 92.55 273.96 86.15 274.36 85.55 274.4 86.65 273.93 86.19 269.27 86.25 267.5 86.26 263.13 86.74 260.29 86.91 256.19 87.83 249.89 88.16 245.27 88.19 244.24 89.79 240.97 90.85 241.02 92.09 240.9 98.43 240.5 101.33 240.36 102.21 240.29 103.52 240.02 104.04 239.98 105.13 240.07 105.74 240.08 106.58 240.04 107.55 240.05 108.85 240.12 Z" id="22"/>
<path d="M 154.95 370.63 155.66 370.9 156.33 371.25 156.86 371.57 157.76 372.24 158.02 372.48 158.59 373.19 158.83 373.53 159.09 373.99 159.34 374.59 159.61 376.1 159.69 377.19 159.34 381.73 159.11 383.75 158.88 384.71 158.68 385.3 158.21 386.39 157.46 387.84 150.65 381.38 150.65 380.27 150.81 380.37 151.28 372.6 151.42 371.85 151.6 371.53 151.85 371.23 152.04 371.05 152.44 370.77 152.59 370.71 152.86 370.69 153.42 370.73 153.91 370.79 154.67 370.98 154.68 370.55 154.95 370.63 Z" id="23"/>
<path d="M 163.96 298.77 163.91 299 165.26 299.32 165.18 299.67 164.84 300.75 164.64 301.48 165.9 301.78 165.69 302.34 165.39 303.38 169.22 304.22 172.24 304.93 170.28 311.41 168.8 311.03 162.21 309.57 152.33 307.3 154.75 299.25 153.37 298.84 152.89 298.38 150.65 298.44 149.91 298.16 148.06 297.7 148.45 296.35 148.92 294.87 149.38 295.23 150.6 295.74 163.96 298.77 Z" id="24"/>
<path d="M 172.74 300.77 173 301.1 173.39 301.5 173 301.39 173.21 301.67 172.51 303.95 172.24 304.93 169.22 304.22 165.39 303.38 165.69 302.34 165.9 301.78 164.64 301.48 164.84 300.75 165.18 299.67 165.26 299.32 163.91 299 163.96 298.77 172.74 300.77 Z" id="25"/>
<path d="M 58.21 366.88 58.49 369.96 58.58 371.27 58.8 372.92 59.08 375.89 56.96 376.08 55.22 376.18 51.95 376.47 50.26 376.45 48.76 376.32 47.33 376.27 46.98 376.23 45.42 375.97 46.94 370.35 48.36 364.92 51.26 366.64 52.13 367.06 52.41 367.15 52.85 367.23 53.6 367.24 58.21 366.88 Z" id="26"/>
<path d="M 95.75 385.67 94.5 386.4 93.23 387.08 92.04 387.79 90.66 388.52 84.91 391.77 83.24 392.55 82.48 392.86 81.75 391.36 80.6 388.68 78.66 384.75 80.1 384.12 81.92 383.15 83.18 382.42 84.29 381.84 85.33 381.23 87.94 379.8 89.24 379.04 90.39 378.32 91.68 380.19 92.98 381.96 93.81 383.02 95.75 385.67 Z" id="27"/>
<path d="M 146.39 253.4 146.7 256.72 147.15 262.24 147.53 267.56 147.7 269.23 147.94 271.71 148.33 276.66 148.62 279.42 148.66 280.43 142.43 287.36 141.84 287 141.51 286.93 140.9 287.09 140.25 287.05 139.72 287.07 136.96 287.23 135.01 287.31 129.91 287.64 127.66 287.74 127.55 286.63 127.56 286.19 127.27 283.01 126.67 275.13 125.46 260.63 124.96 253.96 126.38 253.87 127.22 253.74 128.29 253.35 128.82 253.2 132.11 252.99 134.25 252.92 138.02 252.87 139.44 252.95 143.04 252.84 146.34 252.82 146.39 253.4 Z" id="28"/>
<path d="M 177.08 260.53 173.08 261.44 170.8 261.99 169.83 262.28 165.91 263.74 162.47 265.1 154.5 268.15 153.27 268.57 152.21 268.82 150.67 269.06 148.79 269.19 147.7 269.23 147.53 267.56 147.15 262.24 146.7 256.72 146.39 253.4 146.56 252.97 146.69 252.82 146.92 252.68 149.78 251.93 150.22 251.86 151.13 251.78 152.47 251.8 152.73 251.79 153.25 251.72 153.9 251.6 165 249.15 167.16 248.65 167.5 248.6 167.77 248.6 168.56 248.71 168.98 248.64 171.94 247.93 173.08 247.62 177.08 260.53 Z" id="29"/>
<path d="M 72.53 339.26 69.83 343.06 68.44 344.88 66.7 347.31 66.58 347.54 66.53 347.7 66.51 348.13 66.45 348.37 66.37 348.51 66.05 348.75 65.17 348.22 60.38 345.59 59.94 345.26 60.25 345.73 61.1 347.18 59.64 346.5 55.72 344.27 54.11 343.42 55.06 342.14 54.26 341.78 52.97 341.06 50.66 340.01 47.45 338.23 46.31 339.57 43.55 337.43 41.24 335.45 41.02 335.66 39.78 334.64 38.82 335.52 37.16 334.22 35.81 333.1 34.55 332.11 38.1 328.74 36.84 327.76 39.17 325.58 40.45 326.6 41.58 325.48 42.79 324.4 43.55 323.65 44.84 324.67 46.68 326.19 47.13 326.62 47.46 327.02 47.7 327.25 50.4 324.7 51.1 324 51.64 323.54 52.26 324.16 53.84 325.67 55.63 327.28 59.55 330 62.14 331.77 69.93 337.29 70.17 337.48 70.25 337.63 70.33 337.68 72.53 339.26 Z" id="30"/>
<path d="M 32.28 314.44 34.77 316.45 36.43 317.75 38.57 319.52 39.79 320.58 43.55 323.65 42.79 324.4 41.58 325.48 40.45 326.6 39.17 325.58 36.84 327.76 38.1 328.74 34.55 332.11 33.25 331.1 32 330.07 29.69 332.22 28.53 333.35 24.57 337.02 20.7 333.84 19.56 332.88 16.5 330.43 15.85 329.96 15.47 329.74 24.37 314.52 24.64 311.23 26.12 311.28 28.17 311.45 28.63 311.55 28.76 311.63 32.28 314.44 Z" id="31"/>
<path d="M 209.48 338.78 200.41 357.77 197.54 356.11 177.6 346.45 174.64 336 176.47 329.87 185.81 332.02 185.86 331.91 187.22 332.26 193.02 333.55 198.9 334.93 200.14 335.34 203.47 336.54 204.95 337.07 206.38 337.65 209.48 338.78 Z" id="32"/>
<path d="M 109.09 336.75 106.94 339.12 105.92 340.35 104.28 339.28 103.13 338.46 99.52 336.02 102.72 332.42 103.88 333.22 105.13 334.02 109.09 336.75 Z" id="33"/>
<path d="M 100.62 392.27 102.88 395.31 103.05 395.46 103.99 396.54 106.29 400.05 103.28 401.37 97.32 403.4 91.18 405.33 80.41 408.88 76.57 409.89 70.37 411.71 64.6 413.22 61.98 414.2 62.22 409.61 62.43 408.89 62.4 407.52 62.27 405.84 62.21 405.63 62.12 405.51 61.79 405.37 61.69 405.27 61.65 405.1 61.68 404.66 61.64 404.17 62.02 404.1 61.87 402.65 67.08 402.22 68.88 402.02 72.68 401.73 82.15 400.93 86.19 400.46 85.82 399.58 85.55 399.06 85.63 399.02 84.63 397.2 83.27 394.3 82.48 392.86 83.24 392.55 84.91 391.77 90.66 388.52 92.04 387.79 93.23 387.08 94.5 386.4 95.75 385.67 98.7 389.61 100.62 392.27 Z" id="34"/>
<path d="M 498.84 205.83 498.72 204.57 498.74 203.22 498.67 202.06 497.86 201.63 496.52 201.48 495.4 201.77 494.35 202.29 493.75 202.52 484.38 206.47 483.84 206.65 483.23 205.14 479.67 186.97 478.11 179.21 477.71 176.74 477.43 175.32 477.31 174.28 477.19 173.65 477 173.29 476.66 172.84 475.95 172.09 471.53 167.73 467.9 164.22 465.4 162.03 462.79 159.5 460.91 157.42 458.67 156.46 456.91 156.86 455.28 156.7 453.64 156.63 448.32 156.75 444.53 156.9 443.62 156.85 443.12 156.51 442.62 155.57 442.32 154.04 442.12 152.83 442.04 152.17 436.53 123.88 435.92 119.06 434.76 112.53 434.59 111.93 432.2 99.21 431.83 95.54 431.27 94.97 430.42 90.7 428.53 81.99 428.07 80.23 426.71 80.24 425.12 80.15 424.45 80.02 422.43 76.52 421.94 75.75 421.68 75.14 420.64 73.18 417.1 65.67 414.57 61.05 411.47 54.78 405.89 44.18 405.05 43.21 406 42.04 405.95 41.99 406.12 42.1 406.01 42.35 405.45 42.92 405.41 43 405.41 43.12 405.45 43.23 405.57 43.35 405.77 43.44 405.83 43.51 405.87 43.87 405.91 43.94 406.24 44.17 406.21 44.31 406.27 44.53 406.4 44.55 406.54 44.49 406.63 44.4 406.69 44.48 406.68 44.62 406.55 44.82 406.62 44.86 406.78 44.85 406.8 44.96 406.92 45.03 407.03 45.01 407.17 44.93 407.2 44.87 407.19 44.64 407.25 44.57 407.37 44.57 407.51 44.59 407.52 44.78 407.57 44.82 407.64 44.85 407.87 44.89 407.93 44.84 407.94 44.67 408.05 44.65 408.11 44.92 408.18 44.94 408.42 44.9 408.96 44.93 409.13 44.91 409.47 44.82 409.62 44.75 409.92 44.54 410.11 44.27 410.37 44.15 410.8 43.87 411.05 43.82 411.5 43.87 412.2 43.72 413.44 43.19 413.62 43.17 427.69 36.39 427.61 36.23 427.62 36.08 427.83 35.9 428.06 35.8 428.26 35.8 428.36 35.85 428.44 35.85 428.67 35.65 429.11 35.6 431.21 35.63 431.38 35.41 431.39 35.14 431.48 35.04 431.67 34.94 431.94 34.91 432.19 34.7 432.44 34.6 432.81 34.64 433.42 34.92 433.73 34.97 433.95 35.11 434.25 35.14 434.74 35.12 435.01 35.03 435.82 34.98 437.01 34.66 437.41 34.67 437.8 34.58 438.07 34.58 438.43 34.51 439.48 34.12 440.39 33.74 441.32 33.08 441.61 32.81 441.66 32.73 441.63 32.59 441.68 32.41 441.68 32.17 441.85 31.95 442 31.92 442.08 31.92 442.5 32.21 442.62 32.2 442.77 32.12 442.84 32.06 443.25 31.05 443.46 31.06 443.74 31.19 443.51 32.01 443.53 32.1 443.64 32.22 444.02 32.43 444.24 32.49 445.08 32.59 445.83 32.99 445.9 33.08 445.96 33.29 445.9 33.53 445.69 33.73 445.52 33.74 445.3 33.72 445.15 33.79 444.64 34.3 444.55 34.67 444.58 35.46 444.92 35.71 444.97 35.79 445.2 36.57 445.23 36.82 445.27 37.23 445.18 37.93 445.15 38.87 444.98 39.41 444.65 39.78 444.36 39.99 444.33 40.09 444.36 40.22 444.29 40.35 444.4 40.5 444.33 40.63 444.27 40.67 444.14 40.69 444.07 40.76 443.76 41.16 443.57 41.27 443.46 41.27 443.34 41.4 443.17 41.47 443.11 41.55 442.84 41.69 442.66 41.66 442.57 41.71 442.57 41.78 442.42 41.9 442.19 41.98 442.01 41.95 441.92 42.03 442.1 42.21 442.09 42.25 442 42.29 441.91 42.27 441.89 42.37 442.21 42.4 442.34 42.39 442.4 42.44 442.32 42.6 442.34 42.8 442.32 42.86 442.11 43.02 442.14 43.21 441.98 43.39 441.83 43.49 441.91 43.53 442.06 43.56 442.08 43.64 441.95 43.73 441.65 43.82 441.61 43.9 441.62 44.14 441.86 44.29 441.98 44.29 442.04 44.25 442.07 44.01 442.27 44.08 442.43 44.08 442.51 44.2 442.47 44.29 442.38 44.36 442.39 44.4 442.35 44.47 442.29 44.5 442.3 44.57 442.41 44.66 442.44 44.74 442.42 44.83 442.51 44.89 442.61 44.89 442.68 44.85 442.72 44.92 442.67 45 442.71 45.24 442.63 45.31 442.49 45.55 442.58 45.74 442.51 45.99 442.29 46.29 442.31 46.39 442.26 46.48 442.15 46.53 442.13 46.76 441.98 46.82 441.87 46.95 441.75 47 441.88 47.19 441.91 47.54 441.87 47.85 441.88 48.32 441.62 48.63 436.33 52.87 436.04 53.06 435.92 53.26 435.85 53.3 435.58 53.33 435.37 53.51 435.24 53.67 435.26 53.82 435.35 53.95 435.45 54.02 435.65 54.04 435.76 54.17 435.79 54.25 435.7 54.51 435.74 54.66 435.86 54.72 435.99 54.71 436.03 54.78 435.84 54.92 435.8 55.08 435.85 55.4 436.04 55.43 436.08 55.5 435.97 55.81 435.97 56.11 436.05 56.24 435.91 56.31 435.9 56.41 435.95 56.62 436.09 56.9 435.98 57.03 435.94 57.19 435.64 57.51 435.46 57.6 435.36 57.7 435.25 58.08 435.33 58.23 435.47 58.29 435.52 58.35 435.73 58.76 435.89 59.4 435.91 59.79 436 59.97 436.04 60.19 436.2 60.47 436.25 60.65 436.26 60.76 436.22 60.93 436.25 61.08 436.19 61.26 436.26 61.5 436.13 61.61 436.1 61.68 436.13 61.73 436.28 61.77 436.25 61.93 436.34 62.07 436.39 62.31 436.49 62.47 436.52 62.56 436.47 63.12 436.42 63.18 436.17 63.34 436.14 63.47 436.26 63.62 436.51 63.77 436.99 64.57 437.13 64.75 437.29 65.07 437.4 65.54 437.46 65.93 437.42 66.11 437.44 66.22 437.5 66.39 437.65 66.59 437.72 66.9 437.86 67.26 438.06 67.62 438.29 68.16 438.34 68.55 438.56 68.82 438.68 69.08 438.77 69.32 438.82 69.57 438.87 69.68 439.01 69.83 439.11 70.23 439.41 70.44 439.57 70.88 439.85 71.22 440 71.54 440.6 72.6 440.88 73.21 441.42 74.05 441.83 74.76 442.55 75.73 443.08 76.13 443.27 76.43 443.56 76.78 443.67 77.02 443.69 77.31 444.07 77.79 444.43 78.35 444.54 78.61 444.86 79.13 444.9 79.34 445.06 79.69 445.25 79.96 445.98 80.82 446.02 80.9 445.94 81.31 445.76 81.65 445.55 81.82 445.35 82.18 445.38 82.26 445.68 82.54 445.98 82.46 446.15 82.66 446.24 82.66 446.41 82.56 446.51 82.3 446.55 82.26 446.68 82.21 446.8 82.24 446.84 82.42 446.8 82.5 446.62 82.64 446.64 82.79 446.71 82.83 446.96 82.84 447.1 82.77 447.13 82.83 447.05 82.96 447.08 83.22 447.09 83.25 447.26 83.35 447.33 83.46 447.29 83.53 447.19 83.56 447.12 83.62 447.1 83.75 447.23 83.76 447.44 83.69 447.55 83.7 447.55 83.86 447.68 83.98 447.92 83.99 447.99 84.04 448.03 84.14 447.98 84.2 447.82 84.23 447.74 84.29 447.71 84.39 447.72 84.48 447.87 84.54 447.9 84.6 447.85 84.67 447.68 84.79 447.65 84.91 447.46 85.18 447.47 85.25 447.71 85.32 447.74 85.57 447.81 85.69 447.83 85.89 447.93 86.09 447.97 86.12 448.07 86.11 448.29 85.96 448.74 85.91 448.83 85.94 448.82 86.03 448.62 86.39 448.33 86.65 448.16 86.96 447.93 87.18 447.9 87.34 447.95 87.48 448.02 87.54 448.14 87.59 448.58 87.63 449.07 88 449.16 88.18 449.16 88.38 449.2 88.48 449.31 88.62 449.49 88.73 449.53 88.82 449.43 88.89 449.44 88.99 449.64 89.11 449.98 89.21 450.19 89.22 450.36 89.03 450.44 89.05 450.45 89.23 450.05 90.07 450.05 90.2 450.12 90.45 450.2 90.55 450.29 90.75 450.62 90.77 451.04 90.95 451.22 91.16 451.58 91.46 451.83 91.76 451.88 92.08 452.19 92.23 452.34 92.34 452.41 92.52 452.38 92.73 452.4 92.83 452.48 92.91 452.93 93.06 453.02 93.05 453.12 93.12 453.16 93.2 453.15 93.31 453.24 93.49 453.3 93.74 453.35 93.85 453.44 93.92 453.48 94.01 453.41 94.18 453.5 94.34 453.53 94.56 453.6 94.64 453.82 94.76 454 94.94 454.19 95.21 454.21 95.29 454.37 95.45 454.73 95.99 454.79 96.11 454.76 96.22 454.54 96.39 454.36 96.45 454.25 96.63 454.31 96.71 454.68 96.95 454.93 97.24 454.96 97.4 454.94 97.57 454.81 97.83 454.84 98.14 454.96 98.39 455.1 98.51 455.38 98.93 455.59 99.48 455.57 99.82 455.63 99.89 455.85 99.95 456.02 100.13 456.04 100.21 455.97 100.37 456.06 100.52 456.04 100.67 456.18 100.8 456.34 101.04 456.43 101.36 456.67 101.44 456.81 101.6 456.94 101.66 457.19 101.67 457.31 101.72 457.46 101.88 457.44 102.09 457.66 102.32 457.77 102.63 461.82 105.73 464.45 110.29 469.32 113.14 469.05 113.69 468.87 114.19 468.89 114.36 469.08 114.57 469.05 114.66 468.99 114.73 468.98 115.02 469.53 115.3 469.7 114.75 469.79 114.7 469.92 114.72 469.97 114.81 469.99 115 470.44 115.02 470.64 115.08 470.68 115.16 470.74 115.31 470.75 115.53 470.82 115.73 470.93 115.92 470.98 116.13 470.94 116.28 470.58 116.64 470.15 117.25 469.64 117.89 469.53 118.06 469.65 118.33 469.84 118.45 470.09 119.07 470 119.23 469.94 119.48 470.02 119.71 470.2 119.89 470.5 120.05 470.71 120.13 470.91 120.13 471.08 120.11 471.42 119.98 471.84 119.87 472.54 119.73 472.76 119.63 472.9 119.61 473.23 119.67 473.36 119.75 473.49 120.01 473.65 120.03 473.8 119.98 473.94 119.96 474.3 120.12 474.53 120.13 474.71 120.16 474.83 120.29 474.77 120.36 474.8 120.43 475.19 120.64 475.34 120.68 475.52 120.53 475.75 120.56 476.02 120.65 476.12 120.74 475.9 121.26 475.87 121.47 476.04 121.76 476.13 122.08 476.23 122.21 476.46 122.41 476.81 122.51 477.38 122.54 477.58 122.62 478.08 122.64 478.73 122.75 479.41 122.76 479.94 122.85 480.21 122.8 480.34 122.75 480.49 122.75 480.65 122.82 480.99 122.87 481.28 123 481.58 123.06 482.45 123.01 483.15 123.04 484.14 122.88 484.43 122.7 484.48 122.54 484.46 122.39 484.57 122.26 484.68 122.25 484.94 122.33 485.34 122.37 485.57 122.29 485.64 122.2 485.78 122.19 486.16 122.21 486.46 122.26 486.75 122.26 487.2 122.3 488.51 122.51 489.33 122.48 490.12 122.38 490.65 122.27 490.98 122.16 491.12 122.06 491.31 122.01 491.38 122.01 491.62 122.14 491.87 122.11 492.02 121.9 492.04 121.77 492.13 121.63 492.41 121.48 492.74 121.54 492.89 121.53 493.23 121.3 493.39 121.22 493.52 121.13 493.59 121.02 493.74 120.08 494.08 119.53 494.41 119.4 494.42 119.24 494.37 118.86 494.25 118.24 494.29 117.38 494.35 117.2 494.73 117.07 494.9 117.08 495.17 117.18 495.62 117.16 496.03 117.24 496.22 117.29 496.56 117.55 496.81 117.65 497.45 117.64 498.28 117.89 498.62 118.14 499.06 118.54 499.47 119.23 499.5 119.46 499.81 120.15 500.19 120.53 500.63 120.85 510.8 120.47 510.81 120.24 510.92 120.06 511.05 119.95 511.89 119.68 512.16 119.63 512.55 119.64 512.99 119.55 513.41 119.53 513.85 119.46 514.63 119.4 515.05 119.31 515.38 119.28 516.48 119.23 517.5 119.37 517.76 119.44 517.91 119.43 518.08 119.32 518.54 119.17 519 119.15 519.18 119.21 519.38 119.23 521.45 118.72 524.25 117.83 525.55 117.61 525.85 117.4 525.98 117.23 526.13 117.15 526.42 117.11 526.86 117.15 527.21 116.94 527.57 116.68 527.92 116.64 528.06 116.68 528.22 116.8 528.74 116.77 528.9 116.82 529.12 116.78 529.26 116.65 529.38 116.39 530.03 115.79 531.65 115.05 533.28 114.17 534.78 113.61 535.14 113.55 536.02 113.23 539.24 111.72 542.38 110.66 542.67 110.64 543.05 110.68 543.29 110.76 543.58 110.77 544.36 110.6 544.53 110.64 544.62 110.74 545.22 110.61 545.22 110.17 545.29 110.1 545.39 109.85 545.23 109.53 545.25 109.41 545.33 109.29 545.82 108.82 546.08 108.82 546.19 108.87 546.27 108.87 546.31 108.78 546.26 108.67 546.34 108.48 546.45 108.36 546.62 108.35 546.54 108.28 546.43 108.26 546.27 108.36 546.19 108.37 546.02 108.25 545.89 107.95 545.94 107.84 546.05 107.7 546.98 107.09 547.26 106.8 547.7 106.48 547.78 106.5 547.61 106.83 548.17 106.84 548.27 106.57 548.7 106 549.13 105.54 549.51 105.32 549.86 105.23 550.04 105.21 550.46 105.27 550.74 105.38 551.35 105.04 550.67 103.91 549.81 102.93 549.32 102.22 549.12 101.84 548.93 101.22 548.85 101.14 548.85 101.02 548.9 100.84 549.1 100.56 549.39 100.31 549.43 100.21 549.41 99.97 549.58 99.65 549.65 99.33 549.7 99.23 550.14 98.74 550.31 98.4 550.47 97.96 550.61 97.81 550.76 97.53 550.86 97.4 551.1 97.28 551.22 97.15 551.34 96.91 551.73 96.62 552.22 96.37 552.9 95.88 553.43 95.56 553.81 95.2 554.07 95.05 554.26 94.9 554.42 94.88 554.51 94.79 554.58 94.63 554.53 94.38 554.56 94.1 554.85 93.75 555.48 93.22 556.4 92.66 556.96 92.28 557.45 91.82 557.84 91.55 558.12 91.44 558.27 91.47 558.35 91.55 558.38 91.72 558.53 91.77 558.74 91.7 559.1 91.37 559.47 91.15 559.67 90.8 559.7 90.59 559.61 90.38 559.54 90.29 559.58 90.13 559.92 89.84 560.43 89.53 561.05 89 561.33 88.85 562.54 87.65 562.9 87.45 563.05 87.51 563.32 87.53 563.53 87.41 563.68 87.24 563.73 86.96 564.49 85.97 564.8 85.78 564.97 85.71 565.1 85.75 565.22 85.85 565.87 86.19 565.91 86.14 565.88 86.02 565.72 85.73 565.73 85.64 566.24 84.98 566.2 84.49 566.34 84.25 566.77 84.01 567.34 83.8 567.85 83.5 568.6 82.91 569.02 82.53 569.77 81.71 570.21 81.31 570.4 81.06 570.5 81.04 570.65 81.07 570.81 81.04 570.92 80.98 570.95 80.9 570.83 80.66 570.87 80.48 570.94 80.47 571.1 80.61 571.26 80.59 571.37 80.5 571.44 79.96 572.03 79.37 572.66 78.83 573.85 77.96 573.98 77.89 574.26 77.89 574.46 77.84 574.55 77.68 574.57 77.51 574.67 77.31 575.6 76.52 575.92 76.28 576.09 76.19 576.46 76.11 576.5 76.18 576.44 76.54 576.52 76.68 576.92 76.83 577.12 76.84 577.25 76.9 577.59 76.87 577.36 76.54 577.71 76.25 577.98 75.96 578.21 75.78 578.44 75.74 578.65 75.75 578.93 75.86 579.05 75.85 579.24 75.78 579.34 75.69 579.36 75.61 579.32 75.46 578.94 75.2 578.82 75.05 578.76 74.65 578.79 74.5 578.91 74.37 579.04 74.31 579.15 74.31 579.32 74.46 579.4 74.46 579.58 73.78 579.65 73.62 579.99 73.32 580.18 73.22 580.63 73.12 581.07 72.87 581.13 72.76 581.13 72.53 581.18 72.43 581.48 72.27 581.82 72.32 581.97 72.29 582.23 72.1 583.09 72.13 583.31 72.49 583.64 72.52 583.75 72.45 583.88 72.27 584.47 71.61 585 71.2 585.28 71.14 585.54 70.82 586.02 70.1 586.48 69.81 587.08 69.67 587.2 69.57 587.29 69.4 587.35 69.17 587.46 69.01 588.22 68.37 588.58 67.91 588.73 67.79 588.78 67.87 588.78 67.98 589.05 67.97 589.14 67.56 589.22 67.54 589.46 67.56 589.56 67.33 589.48 67.26 589.17 67.16 589.12 67.09 589.28 66.7 589.65 66.81 589.81 66.5 590.06 66.35 590.19 66.12 589.91 65.95 590.02 65.62 589.7 65.46 589.92 65.17 590.22 64.98 590.45 65 590.58 65.08 590.78 65.12 591.08 65.13 591.13 65.07 591.11 65.01 590.28 64.64 590.38 64.33 590.19 64.25 590.29 64.05 590.49 63.98 590.69 63.87 590.93 63.57 591.26 63.34 591.6 63.18 591.66 62.97 591.76 62.91 591.85 62.93 591.96 62.84 592.04 62.74 592 62.57 592.02 62.4 592.32 62.27 592.45 61.83 592.76 61.52 592.51 61.22 592.72 61.03 592.79 61.04 593.11 61.28 593.4 61.04 593.88 60.99 594.06 60.93 594.64 60.57 594.77 60.43 594.86 60.13 594.75 59.96 594.78 59.85 594.84 59.74 595.09 59.68 595.5 59.06 595.52 58.95 595.58 58.83 595.78 58.73 595.84 58.77 595.8 58.86 595.84 58.98 595.91 59.02 596.44 59.02 596.55 59.1 596.8 58.93 596.68 58.71 596.84 58.64 596.97 58.76 597 58.54 597.45 58.39 597.53 58.27 597.55 58.17 597.63 58.11 597.83 58.09 597.74 57.93 597.75 57.82 597.96 57.62 597.88 57.47 598.02 57.39 598.11 57.5 598.43 57.27 598.6 57.22 598.81 57.62 598.9 57.72 599.26 57.46 599.18 57.11 599.07 56.91 599.11 56.85 599.22 56.82 599.09 56.56 599.06 56.39 599.17 56.3 599.27 56.32 599.48 56.54 600.13 56.24 600.11 55.88 600.02 55.64 600.09 55.53 600.21 55.45 600.31 55.46 600.42 55.6 600.48 55.85 600.63 55.9 600.8 55.86 600.23 55.17 600.26 55.11 600.48 55.09 600.8 55.41 600.99 55.3 601.34 55.57 601.53 55.58 602.14 55.2 601.8 54.78 602.02 54.63 602.13 54.71 602.28 54.59 602.19 54.45 602.2 54.38 602.26 54.34 602.43 54.38 602.69 54.61 602.76 54.54 602.73 54.48 602.65 54.42 602.57 54.17 602.28 53.68 602.33 53.63 602.49 53.66 602.61 53.79 602.69 53.74 602.78 53.83 603.1 53.58 603.35 53.57 603.41 53.49 603.39 53.4 603.17 53.12 603.32 53.01 603.42 53.15 603.6 53.04 603.78 53.19 603.85 53.17 603.72 52.72 603.96 52.57 604.21 52.94 604.28 52.99 604.37 52.97 604.82 52.63 605.16 52.83 605.24 52.82 605.45 52.72 605.55 52.62 605.57 52.47 605.54 52.18 605.59 51.99 605.73 51.88 605.95 51.62 606.05 51.57 606.15 51.58 606.28 51.7 606.84 51.29 606.99 51.41 607.1 51.35 607.14 51.14 607.2 51.04 607.57 50.61 608.21 50.47 608.6 50.28 608.67 50.15 608.69 50.01 608.95 49.62 608.87 49.47 608.89 49.36 608.98 49.28 609.1 49.26 609.31 49.34 609.39 49.26 609.35 49.19 609 48.9 608.95 48.76 608.99 48.65 609.14 48.58 609.34 48.57 609.46 48.54 609.54 48.41 609.59 48.06 609.81 47.86 610.1 47.68 610.34 47.56 610.36 47.5 610.35 47.46 609.91 47.11 609.85 47.01 609.96 46.76 609.9 46.66 609.06 46.09 609.01 46.01 609.01 45.92 609.18 45.68 609.24 45.67 609.96 46.26 610.02 46.21 609.82 46 609.76 45.89 610.07 45.25 610.61 44.45 610.74 44.19 610.89 44.02 611.26 43.81 611.39 43.67 611.57 43.21 612.23 42.58 612.61 42.07 612.69 42.01 612.84 42 613.1 42.13 613 41.9 612.99 41.8 613.08 41.65 613.2 41.21 613.19 40.97 613.1 40.89 613.06 40.75 613.09 40.61 613.2 40.33 613.47 39.8 614.21 38.67 614.42 38.45 614.58 38.36 614.9 38.28 615.21 38.24 615.31 38.22 615.36 38.17 615.36 38.05 615.08 37.69 615.11 37.52 615.26 37.19 615.28 37.07 615.65 36.61 615.82 36.32 616.05 35.67 615.98 35.2 616.02 34.93 616.65 33.77 616.77 33.74 616.98 33.8 617.06 33.9 617.13 34.09 617.31 34.22 617.55 34.26 617.71 34.36 617.84 34.39 618.1 34.38 618.36 34.44 618.57 34.27 618.64 34.14 618.66 34.03 618.6 33.97 618.4 33.99 618.35 33.93 618.33 33.84 618.36 33.76 618.55 33.69 618.61 33.3 618.62 33.11 618.32 32.65 618.47 32.48 618.37 32.44 618.12 32.46 617.92 32.44 617.88 32.36 618.19 32.2 618.22 32.06 618.09 31.86 618.13 31.78 618.44 31.61 618.47 31.41 618.39 31.26 618.18 31.13 618.17 31.05 618.24 30.78 618.25 30.44 618.41 30.2 618.48 29.94 618.42 29.54 618.19 29.34 618.17 29.23 618.19 29.1 618.37 29.03 618.4 28.94 618.35 28.68 618.4 28.25 618.17 27.95 617.79 27.95 617.7 27.85 617.63 27.04 617.77 26.66 617.97 26.72 618.27 26.71 618.51 26.57 618.55 26.4 618.67 26.45 618.95 26.49 619.04 26.47 619.12 26.3 619.08 26.23 618.97 26.17 618.89 25.75 618.81 25.6 618.45 25.47 618.22 25.44 618 25.3 617.95 25.21 617.74 24.72 617.68 23.95 617.63 23.85 617.51 23.74 617.4 23.56 617.19 22.38 617.06 22.24 617.07 22.15 617.04 22.03 616.99 21.96 616.75 21.83 616.64 21.68 616.41 21.59 616.32 21.59 616.28 21.66 616.11 21.77 616.04 21.78 615.93 21.77 615.84 21.71 615.75 21.54 615.65 21.44 615.12 21.45 615.08 21.4 615.09 21.33 615.25 21.16 615.27 20.93 615.32 20.84 615.25 20.7 615.35 20.4 615.33 20.24 615.14 19.96 615.08 19.95 614.97 20 614.6 19.87 614.46 19.67 614.48 19.6 614.6 19.49 614.67 19.47 614.78 19.46 614.94 19.52 615.1 19.44 615.16 19.33 615.13 19.04 615.02 18.77 614.95 18.72 614.79 18.71 614.7 18.68 614.68 18.59 614.45 18.47 614.37 18.47 614.14 18.64 613.99 18.71 613.92 18.72 613.82 18.67 613.82 18.5 613.9 18.38 613.98 18.17 614.15 18.05 614.27 17.88 614.3 17.34 614.28 17.25 614.11 17.13 614.03 16.98 614.07 16.83 613.97 16.7 613.79 16.54 613.83 16.46 613.66 16.23 613.49 16.32 613.23 16.4 613.14 16.38 613.06 16.32 612.92 15.99 612.91 15.9 612.94 15.76 613.06 15.74 613.67 15.7 613.99 15.66 614.33 15.56 614.47 15.57 614.54 15.43 614.37 15.43 614.54 15.09 614.51 14.83 614.41 14.65 614.41 14.48 614.53 14.05 614.6 13.97 614.69 13.98 614.77 14.02 614.92 14.33 615.08 14.37 615.4 14.33 615.52 14.26 615.91 14.16 616.04 14.1 616.11 14.02 616.14 13.91 616.1 13.62 616.02 13.51 616.01 13.28 615.89 13.07 615.59 12.85 615.36 12.77 615.14 12.78 614.89 12.92 614.79 12.93 614.75 12.72 614.41 12.17 614.38 12.07 614.48 11.75 614.52 11.41 614.57 11.33 614.81 11.21 614.85 11.11 614.84 10.7 614.76 10.55 614.76 10.3 614.81 10.05 614.92 9.83 614.93 9.31 615 9.14 615.11 8.99 615.12 8.87 615.05 8.78 615.08 8.52 615.27 8.07 615.41 7.48 615.59 6.15 615.56 5.73 615.59 5.4 615.75 5.17 615.72 4.84 615.78 4.67 615.78 4.44 615.89 4.23 615.86 4.05 615.92 3.72 616.11 3.25 616.25 3.01 616.4 2.9 616.56 2.84 616.87 2.59 617.17 2.52 617.26 2.47 617.37 2.32 617.47 2.28 617.65 2.29 617.82 2.39 617.98 2.4 618.3 2.37 618.46 2.46 618.57 2.48 618.69 2.42 618.83 2.27 618.89 1.99 619.05 1.85 619.26 1.45 619.27 1.34 619.2 1.17 619.36 1 619.48 1 619.59 1.07 619.67 1.21 619.77 1.57 619.91 1.9 620 2 620.26 2.16 620.38 2.41 620.44 2.47 620.81 2.68 620.91 2.78 621.15 3.03 621.39 3.45 621.46 3.51 621.68 3.57 621.78 3.62 622.05 3.95 622.13 4.21 622.16 4.57 621.93 4.82 622.16 5.2 622.47 4.86 622.49 4.84 622.6 4.85 622.63 5.13 622.55 5.59 622.58 5.81 622.82 6.17 622.98 6.28 623.39 6.75 623.43 6.93 623.43 7.19 623.49 7.36 623.61 7.48 623.72 7.68 623.72 7.8 623.84 7.95 624.22 8.19 624.45 8.81 624.57 8.9 624.63 9.07 625.01 9.45 625.09 9.7 625.6 10.12 625.73 10.49 625.96 10.76 625.98 11.02 625.91 11.1 626.59 11.65 627.08 11.35 627.24 11.4 627.31 11.46 627.27 11.61 627.3 11.69 627.57 11.78 628.05 12.13 628.2 12.17 628.3 12.16 628.44 12.05 628.55 12.06 628.9 12.4 629.42 12.71 629.58 12.87 629.66 13.01 629.67 13.2 629.62 13.29 629.29 13.3 629.22 13.34 629.21 13.41 629.79 13.75 629.99 13.98 630.1 14.18 630.15 14.39 630.15 14.59 630.11 14.73 629.93 15.12 629.84 15.22 629.74 15.24 629.76 15.36 629.96 15.45 630.09 15.42 630.22 15.62 630.21 15.81 629.97 16.07 629.9 16.07 629.38 15.9 628.96 15.81 628.64 15.81 628.35 15.86 628.14 15.95 627.93 16.09 627.72 16.35 627.58 17.3 627.47 17.29 628.38 18.11 628.42 17.93 628.58 17.89 628.7 18.01 629.06 18.01 629.37 18.18 629.61 18.15 629.7 18.19 629.7 18.27 629.65 18.33 629.68 18.4 629.75 18.45 629.89 18.44 629.97 18.64 630.25 18.82 630.43 18.86 630.7 19.04 631.38 19.12 631.54 19.21 631.68 19.34 631.94 19.7 632.18 19.88 632.43 19.98 632.69 20.15 632.89 20.4 633.18 20.55 633.43 20.72 633.73 20.83 634.12 21.06 634.27 21.24 634.25 21.64 634.16 22.12 634.16 22.33 634.2 22.46 634.49 22.6 634.54 22.72 634.52 22.84 634.43 22.94 634.44 23.02 634.63 23.12 634.59 23.33 634.68 23.45 634.84 23.81 635.18 24.32 635.21 24.46 635.39 24.73 635.43 24.87 635.65 25.07 635.7 25.23 635.64 25.33 635.47 25.36 635.28 25.31 635.16 25.38 635.16 25.53 635.04 25.98 635.05 26.17 635.12 26.23 635.22 26.24 635.37 26.15 635.48 26.14 635.69 26.16 636.27 26.36 636.43 26.47 636.43 26.56 636.18 26.74 636.13 26.81 636.11 26.95 636.14 27.07 636.34 27.22 636.49 27.26 636.73 27.42 636.77 27.65 649.86 30.48 651.02 30.64 653.62 31.25 654.63 32.13 655.57 32.75 656.57 32.97 657.77 32.49 659.9 32.63 661.54 32.44 661.68 32.46 662.83 31.85 663.42 31.84 663.6 31.55 664.25 31.41 664.72 30.98 665 31.18 665.76 31.28 665.96 30.9 666.15 31.08 666.43 30.74 667.42 30.53 667.81 30.64 668.2 30.48 668.92 30.41 669.62 29.93 670.5 29.72 671.18 29.26 671.85 29.33 672.08 29.1 672.6 28.96 674.82 27.29 675.85 27.22 676.17 27.04 676.61 26.93 677.15 26.84 677.33 26.57 677.67 26.34 679.17 25.66 680.98 25.1 681.79 24.67 682.49 24.58 682.59 24.33 682.93 24.15 683.36 23.73 683.96 23.7 684.48 23.41 685.05 23 685.83 22.89 686.21 22.53 686.6 22.53 687.2 21.95 688.1 21.74 689.06 20.6 691.52 19.33 691.98 18.82 692.76 18.66 693.8 17.71 694.57 17.35 695.56 16.54 696.33 15.96 697.03 15.62 697.29 15.46 697.44 14.99 698.22 14.58 698.63 14.22 699.2 13.86 699.23 13.57 700.03 12.96 700.13 12.65 700.16 10.1 700.36 9.86 700.82 9.82 701.11 9.55 701.33 9.11 701.13 8.74 701.08 7.69 700.89 6.27 700.89 5.87 700.69 5.69 701.56 4.57 704.09 3.03 705.54 3.1 706.93 3.28 708.76 3.85 710.62 4.58 713.36 6.01 713.99 6.92 714.56 6.83 714.94 6.86 715.11 6.94 715.23 7.11 715.63 7.36 715.94 7.49 716.06 7.49 716.35 7.39 716.46 7.41 716.6 7.65 718.21 8.42 718.39 8.6 718.8 8.71 720.47 9.32 721.51 9.78 721.72 9.95 722.3 10.29 722.73 10.37 722.91 10.36 723.05 10.54 723.21 10.65 724.66 11.28 724.87 11.42 725.17 11.56 725.85 11.78 726.32 11.98 726.47 12.13 727.13 12.42 728.05 12.95 728.14 13.07 728.39 13.19 729.48 13.61 730.1 13.77 731.05 14.2 731.25 14.41 731.52 14.54 731.9 14.63 732.05 14.85 732.25 14.91 732.31 14.97 732.23 15.18 732.27 15.25 732.33 15.3 732.51 15.36 732.85 15.6 733.46 15.62 734.04 15.75 735.18 16.27 736.26 17.04 736.65 17.41 736.96 17.6 737.12 17.69 737.54 17.72 737.69 17.8 738.4 18.6 738.65 18.85 738.73 18.88 738.91 18.88 739.01 18.94 739.13 19.21 739.45 19.45 739.58 19.52 739.74 19.55 739.91 19.66 740.34 19.85 741.42 20.91 741.54 21 741.69 21.01 741.84 20.99 741.99 21.04 742.06 21.12 742.12 21.3 742.32 21.46 743.97 22.3 744.03 22.39 744 22.65 744.04 22.76 744.31 23 744.51 23.08 744.96 23.85 744.96 23.95 745.01 24.03 745.21 24.12 745.52 24.52 745.8 24.55 745.86 24.61 745.87 24.72 745.77 24.82 745.81 24.88 746.15 24.9 746.25 24.99 746.28 25.05 746.49 25.16 746.5 25.28 746.55 25.35 746.66 25.39 746.61 25.61 746.72 25.74 746.73 25.83 746.64 25.89 746.64 26.21 746.84 26.57 746.95 26.7 747.04 26.74 747.07 26.89 747.13 26.98 747.37 27.16 747.46 27.39 747.57 27.48 747.74 27.51 748.04 27.69 748.15 27.84 748.2 27.94 748.24 28.25 748.1 28.76 748.23 29.75 753.34 29.72 754.15 30.39 754.38 30.46 754.9 30.52 755.2 30.72 755.59 30.87 755.78 31.07 755.84 31.1 756.09 31.11 756.33 31.18 756.42 31.23 756.56 31.47 756.64 31.52 756.98 31.57 757.19 31.57 757.46 31.51 757.59 31.54 757.79 31.69 758.13 31.85 758.32 31.9 758.97 31.92 759.05 31.96 759.13 32.08 759.21 32.14 759.66 32.13 759.92 32.09 760.38 31.97 760.5 32 760.58 32.08 760.82 32.49 760.92 32.54 761.13 32.6 761.36 32.72 761.51 32.75 762.09 33.07 762.28 33.12 762.73 33.33 763.13 33.45 763.39 33.46 763.69 33.41 763.79 33.46 763.84 33.6 764.28 33.49 764.32 33.37 764.38 33.32 764.41 33.24 764.37 33.16 764.25 33.11 764.01 32.89 763.94 32.8 763.95 32.75 764.06 32.69 764.3 32.68 764.55 32.59 764.87 32.65 764.97 32.72 765.05 32.85 765.38 32.88 765.54 32.92 765.88 33.07 766.62 33.16 766.78 33.28 766.98 33.28 767.51 33.23 767.85 33.25 768.29 33.16 768.67 33.04 769.06 32.74 769.85 32.42 770.17 32.34 770.8 32.31 771.68 32.12 773.29 32.22 774.14 32.22 774.54 32.37 774.66 32.36 774.76 32.29 774.88 32.16 774.99 32.11 775.22 32.09 775.78 32.2 776.16 32.34 776.22 32.44 776.37 32.5 776.58 32.66 777.06 32.62 777.5 32.69 777.98 32.64 778.19 32.72 778.47 32.74 778.79 32.7 778.96 32.59 779.08 32.58 779.82 32.69 780.37 32.87 780.73 32.93 781.8 33.4 782.02 33.4 782.26 33.46 782.62 33.44 782.76 33.48 783.42 33.52 783.61 33.57 783.95 33.78 784.17 33.8 784.46 33.88 784.91 34.27 785.37 34.37 785.71 34.56 785.9 34.76 786.39 34.92 787.4 35.14 787.59 35.21 787.91 35.16 788.28 35.22 788.45 35.18 788.61 35.11 788.71 35.11 788.78 35.2 788.76 35.26 788.61 35.39 788.53 35.57 788.09 35.88 787.97 35.94 787.92 36.01 787.92 36.14 788.04 36.38 788.39 36.6 788.51 36.95 788.52 37.05 788.79 37.4 789 37.35 789.52 37.36 789.61 37.32 789.72 37.2 789.8 37.18 790.03 37.32 790.29 37.36 790.52 37.35 790.62 37.46 790.8 37.49 791.11 37.48 791.5 37.71 791.73 37.95 791.88 38.02 792.25 38.06 792.36 38.13 792.54 38.17 792.87 38.33 793.37 38.45 793.7 38.47 793.91 38.67 794.04 38.75 794.5 38.84 795.48 38.94 795.71 39.02 796.34 39.44 796.46 39.49 796.63 39.53 796.96 39.53 797.12 39.67 797.28 39.73 797.5 39.69 797.85 39.67 798.77 39.83 799 40.03 799 40.22 798.95 40.4 798.86 40.57 798.79 40.96 798.21 41.86 797.17 47.2 797.19 47.26 797.18 47.35 796.9 48.06 796.71 48.21 796.52 48.54 796.39 49.38 793.97 49.47 791.93 50.83 789.64 51.63 788.04 52.02 786.82 52.05 783.15 52.98 780.44 53.77 778.89 54.4 778.51 54.9 777.55 58.57 776.69 60.62 774.03 63 773.43 63.73 771.23 65.45 770.85 66.04 769.93 66.86 768.43 67.95 767.3 69.32 766.61 69.22 765.81 69.53 765.22 69.98 764.23 71.9 764.06 72.69 764.37 73.01 764.42 73.57 763.22 75.53 762.72 76.77 760.87 79.42 760.76 80.11 759.29 82.03 758.42 83.31 757.72 84.17 757.17 85.27 755.29 87.18 752.77 89.04 752.23 89.68 750.95 90.03 749.28 91.3 747.42 91.88 745.33 93.32 744.1 93.72 743.46 94.27 742.92 94.63 741.7 95.07 740.63 95.71 739.65 97.21 738.63 97.85 738.14 98.67 736.91 99.35 735.84 99.98 734.66 100.75 733.6 101.1 730.73 101.57 729.99 101.38 729.09 101.46 728.46 101.27 727.77 101.21 726.93 101.02 726.25 101.49 725.81 101.33 724.87 101.82 724.5 101.86 724.1 102.13 724.05 103.05 723.41 102.4 722.82 102.51 721.51 102.95 721.07 103.94 720.52 104.02 720.19 104.44 720.39 105.27 719.16 106.04 719.31 106.73 718.45 107.32 718.18 107.68 718.04 109.8 718.07 110.26 718.27 110.46 718.09 110.78 718.17 111.84 718.07 112.32 718 113.19 717.77 113.66 717.68 114.33 717.42 115.22 717.48 116.2 717.07 116.73 716.66 117.14 716.63 117.42 716.7 118.05 716.33 119.2 716.33 119.44 716.02 119.69 715.81 120.32 715.76 121.88 715.6 122.59 715.32 123.24 715.02 124.28 715.04 124.93 715.27 125.74 715.04 126.41 715.23 126.99 715.04 127.88 714.81 128.48 714.2 129.06 713.99 129.41 713.86 130.06 713.9 130.69 713.64 131.27 713.61 131.57 713.65 131.81 713.47 132.07 713.59 132.83 713.23 134.54 713.15 135.25 712.8 136.46 712.84 137.09 713 137.9 712.72 138.42 712.81 138.94 712.8 139.8 713.04 140.42 713.02 141.46 712.83 142.24 712.87 142.8 712.79 143.32 712.66 143.58 712.63 144.05 712.29 144.61 712.33 145.66 711.87 146.11 711.64 146.54 711.73 146.82 712.45 147.28 712.59 147.68 712.41 148.09 712.63 148.35 712.75 148.79 712.66 149.41 712.53 149.74 712.83 150.04 712.89 150.59 712.64 151.02 712.71 151.34 712.39 152.43 712.11 152.83 712.17 153.9 712.06 154.53 711.49 155.34 710.21 156 709.55 156.64 709.15 156.87 708.75 156.87 708.32 157.1 707.4 157.27 707 157.3 706.32 157.73 705.84 157.85 705.31 158.3 704.49 158.47 704.29 158.68 703.71 158.87 703.16 158.99 702.61 159.03 702.18 159.26 701.42 159.86 700 160.34 699.07 160.61 697.37 161.04 696.34 161.27 695.24 161.58 693.43 162.32 692.88 162.45 691.16 162.55 690.54 162.67 689.11 163.11 688.4 163.65 688.08 163.67 687.53 163.44 686.66 163.54 685.78 163.48 685.04 163.17 684.12 163.01 683.29 163.41 682.53 163.2 681.4 163.38 680.13 163.2 677.83 163.73 677.01 163.79 676.21 163.97 675.41 164 674.68 164.39 674.08 164.42 673.56 164.2 672.22 164.05 670.67 164.4 669.87 164.5 669.12 164.66 667.51 165.32 666.64 165.44 666.01 165.67 665.36 165.77 664.5 166.3 663.77 166.7 663.87 167.2 663.59 167.42 663.24 167.24 662.9 166.95 662.55 167.21 662.3 167.69 661.61 168 661.34 167.97 660.92 167.67 660.34 167.68 659.99 167.89 659.47 167.84 658.95 167.86 658.49 168.27 658.04 168.39 657.61 168.69 657.14 168.66 656.44 168.39 655.59 168.69 653.76 169.57 652.83 169.87 652.43 170.19 652.07 170.7 652.11 171.48 652.25 171.81 651.7 172.02 651.52 172.61 650.97 172.64 650.63 172.89 650.11 173.04 649.86 173.52 649.05 173.99 648.87 174.42 648.65 174.31 648.5 174.02 648.23 173.95 647.9 174.14 647.3 174.33 646.73 174.22 646.22 174.73 645.67 174.72 645.02 174.93 645.16 175.5 645.16 175.91 644.57 175.73 644.19 175.81 643.83 176.07 643.6 176.44 643.65 176.83 643.94 177 643.97 177.2 643.24 177.19 642.44 177.33 642.26 177.94 641.6 178.82 641.69 179.32 641.17 179.25 640.91 179.63 640.43 179.86 640.54 180.14 640.41 180.49 640.54 180.89 640.43 181.36 640.35 181.54 639.88 181.62 639.43 181.61 639.1 182.02 638.94 182.58 638.79 182.93 638.93 183.32 639.28 183.43 639.03 183.56 638.43 183.77 638.42 184.42 638.56 184.75 639.39 184.77 639.2 185.49 639.31 186.12 638.78 186.46 638.78 186.77 638.65 187.09 638.77 187.2 639.09 187.29 638.59 187.81 638.65 188.28 638.35 188.54 637.95 188.52 637.92 188.99 638.01 189.43 637.85 190.1 637.96 190.9 638.18 191.14 638.56 191.08 638.83 191.22 638.55 191.84 638.81 192.26 638.81 192.69 638.43 192.62 638.16 192.75 638.22 193.27 638.77 193.51 638.89 193.78 638.63 194.16 638.85 194.47 638.27 195.18 638.21 195.91 638.43 196.24 638.69 196.83 638.48 197.44 638.6 198 639.25 198.92 639.65 199.06 639.5 199.23 639.75 199.36 639.52 199.62 639.58 200.12 640.1 200.43 640.25 200.78 640.21 201.34 640.45 201.86 641.14 202.68 641.22 203.65 642.52 204.77 642.44 205.12 643.08 205.8 643.81 207.13 644.57 207.99 645.52 208.85 646.27 209.66 646.84 210.4 647.51 210.91 647.83 211.39 647.94 212.04 648.66 212.29 649.07 213.12 649.46 213.73 649.97 214.26 650.55 215.22 650.94 215.7 651.41 216.01 652 216.8 652.46 217.52 652.79 218.57 653.06 219.24 653.77 219.95 654.13 220.67 654.76 221.45 655 222.35 655.39 223.09 655.3 223.78 655.22 224.15 655.41 224.39 655.71 224.31 655.99 224.14 656.49 224.32 657.45 225.09 657.69 225.7 658.25 226.03 658.95 226.11 659.41 226.74 659.4 227.43 659.61 228.65 660.02 229.03 660.77 229.16 661.32 229.17 661.76 229.37 661.48 229.85 661.57 230.52 661.41 230.93 661.03 231.27 661.23 231.38 661.65 231.37 661.75 231.65 661.5 231.86 661.46 232.54 660.83 233.07 660.42 233.52 659.7 233.86 659.27 234.2 658.56 234.5 657.79 234.62 656.74 235.02 655.85 235.72 655.2 235.97 654.65 236.12 652.21 237.38 650.46 237.91 649.34 238.11 648.31 238.54 647.36 238.44 647.09 238.35 645.34 238.93 644.77 238.9 643.64 239.11 642.62 239.16 641.13 238.99 639.78 239.19 638.93 239.25 637.09 239.09 635.42 239.31 634.27 239.15 633.55 238.92 632.99 238.37 632.87 237.8 632.16 237.41 631.48 235.99 630.86 235.85 630.13 235.23 629.42 234.29 628.78 233.7 628.07 233.13 627.7 232.72 626.73 232.37 625.79 232.1 624.9 231.94 624.65 231.76 624.71 231.15 624.22 230.61 623.56 230.12 620.21 228.76 619.05 228.22 617.47 227.25 616.86 226.74 615.88 225.54 615.37 224.77 614.83 224.29 614.86 223.79 614.47 223.35 613.8 223.17 613.5 221.95 613.43 221.23 612.75 220.4 611.94 219.61 610.98 218.58 610.2 217.88 609.23 217.5 608.6 216.53 608.36 215.88 608.37 215.36 607.53 214.85 607.26 214.63 607.14 214.28 606.74 214.23 606.22 214.31 605.67 214.03 604.61 213.69 603.66 213.44 602.9 212.97 601.83 212.89 601.46 212.8 601.29 212.39 601.12 212.15 600.77 212.01 600.21 211.49 599.66 211.33 598.96 211.28 598.52 210.92 597.62 210.89 597.35 210.82 597.03 210.86 596.75 210.77 596.48 210.64 596.4 210.9 594.87 210.21 594.13 209.66 592.72 209.16 592.28 208.75 591.91 208.18 590.7 207.62 590.41 207.25 590.24 206.9 589.92 206.63 589.23 205.76 588.74 205.49 588.05 205.27 587.73 204.76 586.86 204.3 585.8 203.87 585.53 203.55 585.46 203.39 584.74 203.3 584.04 202.96 583.39 203.28 582.7 203.16 582.32 203.01 581.55 202.98 580.85 203.03 577.58 203.78 573.78 204.34 573.11 204.37 572.42 204.08 571.77 203.64 570.83 203.2 570.29 203.06 569.79 202.99 569.3 202.81 568.87 202.78 568.2 202.86 567.7 202.83 566.63 202.45 566.14 202.45 565.64 202.38 564.92 202.15 564.5 202.1 563.97 202.18 563.23 202.07 561.89 201.66 561.44 201.35 560.72 201.47 560.27 201.51 556.96 201.47 555.86 201.29 555.31 201.39 554.49 201.29 553.9 201.13 553.37 201.04 552.23 201.13 550.26 201.09 549.71 201 549.49 200.88 548.76 201.05 547.32 200.75 546.93 200.51 546.41 200.37 545.89 200.32 543.94 200.6 542.87 200.61 542.57 200.7 541.89 200.73 541.11 201.05 540.74 201.06 539.95 200.88 538.1 200.88 537.43 200.98 536.9 200.95 536.04 200.75 534.57 200.78 533.74 200.9 533.17 201.06 532.34 201.14 531.32 201.17 528.9 201.34 527.75 201.37 527.21 201.25 526.08 201.41 525.49 201.26 524.81 201.31 524.36 201.48 523.79 201.43 523.19 201.47 522.57 201.39 521.85 201.19 521.35 201.14 520.8 201.22 520.33 201.43 516.93 201.65 515.76 202.05 515.06 202.22 514.36 202.23 513.11 202.41 511.41 202.5 510.17 202.25 508.28 202.18 507.75 202.31 506.98 202.19 506.01 202.24 505.01 202.34 504.21 202.57 502.73 203.1 501.4 203.62 500.35 204.26 499.54 204.84 499.41 205.12 498.98 205.59 498.84 205.83 Z" id="35"/>
<path d="M 164.24 224.11 164.25 224.14 163.2 224.43 160.2 225.14 158.62 225.48 153.61 226.75 150.13 227.26 149.53 227.43 149.06 227.64 148.56 227.97 146.97 229.2 145.77 230.34 145.41 230.62 144.88 230.94 144.47 231.12 143.69 231.31 142.73 231.49 137.76 232.36 136.11 232.79 133.56 233.18 127.42 234.01 126.4 234.12 125.8 234.14 124.54 234.1 123.32 234.16 122.29 234.26 121.46 234.45 121.15 234.54 120.18 234.88 118.74 235.65 118.14 235.9 117.39 236.14 116.7 236.26 116.22 236.3 112.25 236.53 110.66 236.68 109.66 236.85 108.57 237.08 108.71 238.9 108.85 240.12 107.55 240.05 106.58 240.04 105.74 240.08 105.13 240.07 104.04 239.98 103.52 240.02 102.21 240.29 101.33 240.36 98.43 240.5 92.09 240.9 90.85 241.02 89.79 240.97 89.92 240.69 89.92 240.62 89.96 240.59 90.05 240.6 90.31 240.04 90.3 239.03 90 235.71 90.17 234.78 90.6 234.18 90.56 233.66 90.61 232.62 90.9 232.52 91 232.4 91.02 232.25 90.98 231.63 91 231.35 91.04 231.11 91.17 230.86 91.35 230.66 91.55 230.53 92.57 230.01 92.81 229.81 93.16 229.47 94.42 228.05 95.42 226.34 96.52 224.73 97 224.26 97.41 224.01 97.96 223.75 98.32 223.63 98.87 223.53 99.28 223.5 100.43 223.57 102.02 223.84 102.45 223.97 102.83 224.19 102.94 224.33 103.15 224.75 103.5 224.76 103.71 224.63 103.85 224.09 103.98 223.87 104.18 223.67 104.71 223.22 105.14 222.94 105.32 222.87 105.45 222.84 107.74 222.91 108.25 222.9 108.79 222.84 109.2 222.77 109.91 222.57 110.98 222.01 113.43 221.53 113.82 221.5 114.2 221.53 115.27 221.9 116.24 222.16 116.9 222.3 116.93 222.24 116.88 222.17 116.89 222.12 117.01 221.98 117.28 221.36 117.5 221.02 118.03 220.51 118.17 220.48 118.35 220.51 118.39 220.58 118.35 220.65 118.13 220.84 118.01 221.01 117.98 221.23 118.02 221.34 118.09 221.42 118.49 221.61 118.77 221.68 119.19 221.71 119.66 221.65 120.14 221.46 120.22 221.37 120.16 220.97 120.17 220.52 120.08 220.24 120.1 220.15 120.21 220.07 120.32 220.11 120.37 220.21 120.37 220.6 120.48 221.22 120.6 221.33 120.87 221.37 121.74 221.39 122.38 221.35 122.94 221.35 123.85 221.27 124.12 221.22 124.4 221.12 124.54 221.03 124.61 220.96 124.64 220.74 124.59 220.1 124.5 219.89 124.52 219.8 124.61 219.76 124.7 219.77 124.78 219.84 124.72 220 124.83 220.56 124.86 220.96 124.91 221.04 125 221.1 125.26 221.16 125.5 221.17 126 221.15 126.67 221.05 126.92 220.96 127.22 220.73 127.3 220.61 127.32 220.49 127.31 220.36 127.26 220.26 126.95 219.97 126.93 219.85 126.95 219.8 127.03 219.75 127.38 219.73 127.61 219.84 128.29 220.91 128.7 221.22 128.92 221.29 129.15 221.24 129.48 221.1 130.39 220.62 130.58 220.53 130.83 220.46 131.1 220.42 132.96 220.42 135.26 220.21 136.87 219.92 137.82 219.72 139.59 219.2 140.54 219.09 142.65 218.97 143.45 218.87 146.74 218.14 147.4 218.09 148.61 218.07 149.96 218.11 151.15 218.17 151.53 218.24 153.31 218.81 154.56 219.37 156.2 220.24 156.94 220.68 158.14 221.55 158.33 221.74 158.57 222.03 158.97 222.64 159.62 223.79 159.89 224.03 160.25 224.51 160.35 224.52 162.64 223.93 162.88 223.89 163.08 223.88 164.24 224.11 Z" id="36"/>
<path d="M 90.61 232.62 90.56 233.66 90.6 234.18 90.17 234.78 90 235.71 90.3 239.03 90.31 240.04 90.05 240.6 89.96 240.59 89.92 240.62 89.92 240.69 89.79 240.97 88.81 240.97 87.73 241.04 86.4 241.21 85.69 241.35 84.78 241.65 82.23 242.77 79.89 243.73 79.2 243.96 78.32 244.19 77.26 244.38 75.71 244.55 73.28 244.6 71.48 244.39 69.62 244.26 68.67 244.15 68.24 244.13 67.41 244.15 65.41 244.02 53.94 242.96 45.08 242.2 43.94 242.06 42.26 241.92 42.03 242.07 41.73 242.17 40.44 243.12 40.71 242.09 40.94 239.78 41.11 237.46 41.26 237.17 41.61 236.31 41.79 235.57 41.9 232.03 42.25 230.58 42.55 229.95 43.38 229.88 42.83 231.1 42.97 231.53 43.03 231.66 43.07 231.67 44.11 231.49 45.97 231.13 47.88 230.65 50.08 230.03 50.37 229.99 55.54 230.58 56.93 230.64 57.86 230.62 58.47 230.38 60.39 229.11 60.69 228.99 60.84 228.97 61.51 228.98 62.7 229.25 63.2 229.31 63.47 229.3 63.86 229.25 65.56 228.78 66.01 228.69 66.37 228.7 66.65 228.74 66.81 228.8 67.14 229.07 67.28 229.31 67.4 229.76 68.27 229.62 68.24 228.96 68.33 228.79 68.56 228.47 68.96 228.24 69.32 228.16 70.19 228.08 71.88 228.11 72.88 228.06 73.21 227.98 73.72 227.6 74.43 227.15 75.17 226.76 75.68 226.62 76.33 226.49 76.6 226.49 77.34 226.6 78.43 226.92 78.94 227.15 79.36 227.54 79.87 228.27 80.38 228.92 81.47 230 81.69 230.12 82.32 230.35 83.44 230.6 83.99 230.66 85.83 230.71 87.55 230.71 88.23 230.74 88.76 230.82 89.25 231 89.63 231.2 89.9 231.44 90.06 231.63 90.12 231.76 90.15 231.99 90.13 232.37 90.15 232.45 90.25 232.54 90.61 232.62 Z" id="37"/>
<path d="M 65.41 244.02 65.45 244.37 65.4 244.77 65.06 247.04 64.44 252.67 64.07 255.48 63.13 263.93 62.37 270.15 61.09 281.25 61.1 281.51 60.97 282.82 60.79 284.06 58.63 283.91 56.29 283.64 55.89 283.66 55.71 283.45 53.96 283.45 48.58 282.96 48.85 281.16 48.89 280.73 43.06 280.15 41.95 280.09 40.66 280.07 38.58 280.17 38.59 279.05 38.7 277.63 38.67 276.9 38.44 276.06 38.21 275.45 38.06 274.53 38.07 273.98 38.16 273.05 38.35 269.9 38.66 266.09 38.82 263.49 38.94 262.24 39.31 257.33 39.73 251.13 40.22 245 40.37 243.49 40.44 243.12 41.73 242.17 42.03 242.07 42.26 241.92 43.94 242.06 45.08 242.2 53.94 242.96 65.41 244.02 Z" id="38"/>
<path d="M 38.07 273.98 38.06 274.53 38.21 275.45 38.44 276.06 38.67 276.9 38.7 277.63 38.59 279.05 38.58 280.17 38.49 282.44 38.35 283.26 38.11 284.09 37.65 285.32 38.02 286.26 38.22 287.03 38.3 287.62 38.4 288.73 38.31 290 38.26 291.43 38.36 292.32 38.99 294.91 39.24 295.64 40.96 300.14 41.63 301.98 42.02 302.88 42.83 304.94 44.44 308.86 43.72 308.82 40.89 308.48 42.17 309.55 38.6 312.9 37.44 313.94 36.4 313.06 36.22 312.99 36.12 313 36.02 313.07 35.03 314.01 33.97 313.14 33.79 313.09 33.62 313.16 32.28 314.44 28.76 311.63 28.63 311.55 28.17 311.45 26.12 311.28 24.64 311.23 26.17 292.62 27.9 273.41 38.07 273.98 Z" id="39"/>
<path d="M 43.38 229.88 42.55 229.95 42.25 230.58 41.9 232.03 41.79 235.57 41.61 236.31 41.26 237.17 41.11 237.46 40.94 239.78 40.71 242.09 40.44 243.12 40.37 243.49 40.22 245 39.73 251.13 39.31 257.33 38.94 262.24 38.82 263.49 38.66 266.09 38.35 269.9 38.16 273.05 38.07 273.98 27.9 273.41 31.93 227.18 32.8 227.11 32.83 227.34 33.14 227.5 33.28 227.42 33.45 227.43 33.68 227.38 33.96 227.19 34.18 227.09 34.65 227.04 35.03 227.04 35.37 227.08 35.94 227.36 36.3 227.47 36.77 227.55 36.89 227.63 37.07 227.8 37.38 227.98 37.62 228.05 39.16 228.27 40.25 228.26 41.25 228.18 41.9 228.3 42.76 228.34 43.02 228.4 43.17 228.49 43.65 228.66 43.74 228.78 43.76 228.89 43.72 229.15 43.38 229.88 Z" id="40"/>
<path d="M 34.55 332.11 35.81 333.1 37.16 334.22 38.82 335.52 37.63 336.6 36.49 337.74 35.23 338.84 34.12 339.93 32.91 341.05 31.74 342.21 30.18 343.58 28.98 344.72 27.84 345.88 26.66 346.95 25.48 348.06 24.27 349.06 21.88 351.29 20.77 352.43 18.4 354.68 17.25 355.8 14.8 357.94 11.45 361.12 10.38 362.25 10.08 362.64 9.59 363.09 9.38 363.2 9.22 363.4 7.17 365.24 2.65 369.52 1.96 365.69 1.85 362.63 1 355.2 15.47 329.74 15.85 329.96 16.5 330.43 19.56 332.88 20.7 333.84 24.57 337.02 28.53 333.35 29.69 332.22 32 330.07 33.25 331.1 34.55 332.11 Z" id="41"/>
<path d="M 128.9 370.12 128.77 373.55 128.56 375.86 127.66 379.54 126.04 383.05 123.35 386.83 121.61 388.79 117.37 387.7 115.92 387.53 115.36 387.54 114.32 387.29 110.3 383.66 109.83 383.17 108.55 382.14 107.75 381.4 106.83 380.69 105.33 379.22 104.84 380.92 105.32 381.35 102.35 383.52 100.78 384.48 101.82 385.74 102.92 386.93 104.01 388.2 100.93 390.18 101.99 391.42 100.62 392.27 98.7 389.61 95.75 385.67 93.81 383.02 92.98 381.96 91.68 380.19 90.39 378.32 92.19 377.26 95.19 375.38 96.57 374.42 97.57 373.67 98.41 372.97 99.48 373.88 100.09 374.48 101.3 372.85 102.87 370.81 103.76 369.61 104.5 368.53 105.86 369.36 106.19 369.36 108.08 369.78 108.55 368.1 109.13 366.42 109.23 366.01 109.42 365.19 109.8 363.99 111.38 358.75 116.6 359.9 118.62 360.37 120.12 360.66 120.98 360.87 121.36 366.55 122.48 367.24 122.5 369.23 121.82 369.2 121.77 370.28 124.25 370.2 128.9 370.12 Z" id="42"/>
<path d="M 221.09 314.49 209.48 338.78 206.38 337.65 204.95 337.07 203.47 336.54 200.14 335.34 198.9 334.93 193.02 333.55 187.22 332.26 185.86 331.91 185.81 332.02 176.47 329.87 177.83 325.77 179.24 321.69 180.55 317.52 185.08 303.63 185.35 303.55 186.45 303.82 187.12 304.76 187.57 304.91 194.44 306.49 201.3 308.03 204.47 308.78 206.45 309.21 207.14 309.4 210.11 310.45 211.74 311.07 221.11 314.45 221.09 314.49 Z" id="43"/>
<path d="M 141.13 321.66 140.05 325.07 139.12 328.21 138.59 329.77 138.13 331.34 137.73 332.54 137.41 332.93 137.4 333.82 137.62 338.37 131.51 335.25 130.58 333.74 125.89 330.5 124.41 329.54 123.1 328.56 120.07 326.46 122.32 324.01 123.01 323.46 123.3 323.32 124 323.07 124.54 322.94 126.83 322.78 128.59 322.43 130.38 322.27 140.74 321.63 141.13 321.66 Z" id="44"/>
<path d="M 54.11 343.42 53.43 344.48 53.28 344.63 53.11 344.64 52.57 345.55 51.7 346.66 51.49 347.34 51.14 348.74 50.73 350.13 49.42 349.85 47.39 355.45 49.27 355.87 51.27 356.23 51.22 357.65 50.36 357.51 49.92 358.96 49.22 361.84 48.36 364.92 46.98 364.11 45.03 363.02 44.16 362.47 43.48 361.94 43.19 361.63 43.03 361.39 42.9 361.15 42.76 360.73 42.2 359.42 41.04 356.53 39.1 352.03 38.21 349.85 37.22 347.31 37.1 347.09 35.14 349.65 33.1 352.17 30.35 349.89 27.87 347.98 26.66 346.95 27.84 345.88 28.98 344.72 30.18 343.58 31.74 342.21 32.91 341.05 34.12 339.93 35.23 338.84 36.49 337.74 37.63 336.6 38.82 335.52 39.78 334.64 41.02 335.66 41.24 335.45 43.55 337.43 46.31 339.57 47.45 338.23 50.66 340.01 52.97 341.06 54.26 341.78 55.06 342.14 54.11 343.42 Z" id="45"/>
<path d="M 147.27 353.54 148.75 353.59 148.56 356.99 147.98 365.17 147.33 365.15 147.26 365.86 147.19 367.38 146.9 371.38 146.69 374.99 144.06 375.13 128.03 359.92 127.94 358.71 127.9 356.89 132.74 354.12 133.38 353.86 133.89 353.85 135.27 352.99 135.74 353.57 136.15 353.68 137.53 353.73 137.64 353.49 141.49 353.38 145.83 353.53 147.27 353.54 Z" id="46"/>
<path d="M 78.3 311.02 78.39 311.12 77.56 313.13 77.48 313.88 76.96 315.1 76.75 315.01 76.67 315.17 76.51 315.11 76.43 315.23 77.05 315.9 76.85 316.12 80.88 318.46 82.19 319.36 83.54 320.19 84.98 320.95 87.4 322.51 85.5 324.58 80.79 329.98 79.52 331.47 74.11 337.61 73.12 338.59 72.53 339.26 70.33 337.68 70.25 337.63 70.17 337.48 69.93 337.29 62.14 331.77 59.55 330 55.63 327.28 53.84 325.67 52.26 324.16 51.64 323.54 50.48 322.43 49.95 321.77 49.73 321.43 49.21 320.46 49.15 320.3 48.54 319.2 48.33 318.75 47.64 317.48 47.09 316.29 46.15 313.48 44.88 309.92 44.44 308.86 42.83 304.94 42.02 302.88 45.78 301.62 46.18 301.46 49.78 300.29 51.79 299.67 54.29 299.05 54.97 298.9 55.44 298.76 56.56 299.59 58.03 300.6 60.32 302.08 63.74 304.43 65.24 305.39 68.55 307.63 70.32 305.97 70.1 305.82 70.53 305.43 72.2 306.57 76.71 309.57 77.07 309.86 77.67 310.57 78.3 311.02 Z" id="47"/>
<path d="M 78.66 384.75 74.67 386.23 73.28 386.69 71.64 387.17 70.33 387.42 69.05 387.56 67.39 387.7 65.6 387.8 60.37 388.23 59.96 384.92 59.8 383.43 59.71 381.88 59.37 378.88 59.08 375.89 58.8 372.92 58.58 371.27 58.49 369.96 58.21 366.88 59.96 366.77 65.12 366.36 65.64 366.28 67.33 365.67 69.21 364.89 69.49 364.74 69.56 365.4 69.53 366.4 69.33 367.03 69.06 367.6 68.96 368.11 68.95 368.62 69.08 369.21 70.66 372.61 71.35 374.01 73.04 373.38 73.72 374.8 74.45 376.14 75.08 377.58 75.8 378.92 76.48 380.28 76.65 380.74 78.05 383.74 78.51 384.58 78.66 384.75 Z" id="48"/>
<path d="M 146.34 252.82 143.04 252.84 139.44 252.95 138.02 252.87 134.25 252.92 132.11 252.99 128.82 253.2 128.29 253.35 127.22 253.74 126.38 253.87 124.96 253.96 124.86 253.16 124.73 252.53 124.16 245.67 124 243.37 123.36 235.86 123.32 234.16 124.54 234.1 125.8 234.14 126.4 234.12 127.42 234.01 133.56 233.18 136.11 232.79 137.76 232.36 142.73 231.49 143.69 231.31 144.47 231.12 144.61 231.84 144.73 231.96 145.04 236.14 145.35 239.67 145.51 242.78 145.68 244.39 145.97 247.91 146.12 249.47 146.34 252.82 Z" id="49"/>
<path d="M 60.79 284.06 60.28 288.78 59.1 298.25 57.38 298.27 55.44 298.76 54.97 298.9 54.29 299.05 51.79 299.67 49.78 300.29 46.18 301.46 45.78 301.62 42.02 302.88 41.63 301.98 40.96 300.14 39.24 295.64 38.99 294.91 38.36 292.32 38.26 291.43 38.31 290 38.4 288.73 38.3 287.62 38.22 287.03 38.02 286.26 37.65 285.32 38.11 284.09 38.35 283.26 38.49 282.44 38.58 280.17 40.66 280.07 41.95 280.09 43.06 280.15 48.89 280.73 48.85 281.16 48.58 282.96 53.96 283.45 55.71 283.45 55.89 283.66 56.29 283.64 58.63 283.91 60.79 284.06 Z" id="50"/>
<path d="M 203.64 232.31 201.87 232.75 200.82 233.15 200.25 233.42 199.63 233.86 198.65 234.71 197.83 235.68 197.37 236.69 197.26 237.02 197.1 237.69 197.03 238.18 197.03 239 197.33 241.89 198.3 252.84 198.6 255.55 198.64 256.58 189.09 257.63 188.07 257.76 187.28 257.94 186.61 258.16 181.24 259.54 177.86 260.32 177.08 260.53 173.08 247.62 165.66 225.04 165.6 224.7 166.67 224.48 167.7 224.63 167.91 224.6 169.96 224.12 174.91 222.81 175.25 222.74 176.05 222.67 177.16 222.42 178.74 226.43 179.19 227.75 180.96 232.6 190.45 229.75 191.19 229.75 192.31 229.83 192.78 229.93 193.29 230.1 194.38 230.59 194.67 230.74 194.76 230.82 194.85 230.96 194.99 230.95 195.31 230.99 196.08 231.25 197.16 231.56 198.55 231.89 199.52 232.05 201.13 232.22 203.64 232.31 Z" id="51"/>
<path d="M 236.49 251.39 221.25 254.09 219.92 254.3 210.02 255.39 203.95 256.02 202.14 256.24 198.64 256.58 198.6 255.55 198.3 252.84 197.33 241.89 199 241.43 200.23 241.35 200.98 240.94 202.43 241.16 210.54 240.4 219.66 239.49 223.15 238.49 224.38 238.17 226.48 237.51 228.29 237.16 230.41 236.86 235.55 236.24 234.96 236.43 235.95 245.74 236.49 251.39 Z" id="52"/>
<path d="M 165.6 224.7 165.66 225.04 173.08 247.62 171.94 247.93 168.98 248.64 168.56 248.71 167.77 248.6 167.5 248.6 167.16 248.65 165 249.15 153.9 251.6 153.25 251.72 152.73 251.79 152.47 251.8 151.13 251.78 150.22 251.86 149.78 251.93 146.92 252.68 146.69 252.82 146.56 252.97 146.39 253.4 146.34 252.82 146.12 249.47 145.97 247.91 145.68 244.39 145.51 242.78 145.35 239.67 145.04 236.14 144.73 231.96 144.61 231.84 144.47 231.12 144.88 230.94 145.41 230.62 145.77 230.34 146.97 229.2 148.56 227.97 149.06 227.64 149.53 227.43 150.13 227.26 153.61 226.75 158.62 225.48 160.2 225.14 163.2 224.43 164.25 224.14 165.44 224.49 165.42 224.64 165.6 224.7 Z" id="53"/>
<path d="M 313.22 231.41 312.34 231.75 296.18 237.42 293.76 238.2 291.88 238.76 288.6 239.63 268.81 244.54 268.49 241.03 267.91 235.67 267.72 233.57 267.51 231.81 267.45 231.49 267.15 230.96 265.25 228.17 264.35 226.95 263.45 225.66 260.11 221.21 256.05 215.63 257.75 214.84 260.49 213.39 261.61 212.61 263.09 211.74 268.71 208.22 273.74 204.97 279.41 201.45 283.71 198.67 284.88 197.97 289.3 195.18 291.28 193.89 295.7 191.14 298.81 189.14 303.23 186.36 306.82 184.05 307.37 183.71 307.88 183.45 312.5 180.51 313.42 179.89 314.03 186.18 314.03 186.99 313.94 187.65 313.89 189.35 313.93 190.81 313.96 191.49 314.39 195.45 314.6 198.19 314.61 199 314.56 199.74 314.37 201.4 313.59 206.47 313.46 208.02 313.39 210.26 313.42 215.99 313.25 222.44 313.28 227.29 313.22 231.41 Z" id="54"/>
<path d="M 268.81 244.54 268.13 244.73 255.86 247.77 252.2 248.58 248.71 249.25 247.55 249.42 240.8 250.66 236.49 251.39 235.95 245.74 234.96 236.43 235.55 236.24 236.79 236.05 240.84 235.54 241.58 235.43 242.67 235.31 245.68 235.15 247.49 235.07 248.7 235.06 250.15 234.99 252.76 234.78 259.3 233.51 262.51 232.81 267.51 231.81 267.72 233.57 267.91 235.67 268.49 241.03 268.81 244.54 Z" id="55"/>
<path d="M 242.01 422.65 242.07 421.86 239.03 418.7 238.95 418.36 239.38 416.78 239.9 412.69 240.32 408.66 240.91 404.1 241.11 403.05 241.56 398.91 242.61 390.58 242.68 389.87 242.53 388.39 242.44 382.31 245.38 383.63 249.45 385.32 254.02 387.09 269.75 392.81 276.93 393.54 283.09 394.12 289.3 394.3 295.55 394.21 301.43 393.57 307.05 393.67 317.75 394.82 323.4 395.59 328.28 396.6 333.01 397.68 337.37 399.51 341.05 401.66 345.23 405.2 349.41 409.59 353.27 414.32 356.3 419.49 358.96 424.2 361.83 429.71 364.39 435.73 366.64 441.89 369.04 448.71 369.89 452.6 370.07 456.3 369.94 460.12 369.59 463.55 368.85 467.23 367.83 470.19 366.44 472.95 364.36 475.32 362.13 477.04 359.6 478.91 356.2 480.62 352.72 482.14 349.6 483 319.94 440.66 282.97 425.74 261.3 422.89 255.07 425.63 251.63 425.66 245.63 423.33 242.01 422.65 Z" id="56"/>
<path d="M 130.38 322.27 128.59 322.43 126.83 322.78 124.54 322.94 124 323.07 123.3 323.32 123.01 323.46 122.32 324.01 120.07 326.46 118.65 325.55 116.59 324.04 114.99 322.98 112.28 321.04 108.17 318.28 105.36 316.29 105.04 316.01 104.11 315.49 103.6 315.3 102.62 314.67 101.33 313.64 99.47 312.34 97.36 310.92 105.25 302.07 106.37 300.84 109.97 296.77 111.5 295.09 111.62 294.99 113.27 293.15 113.31 293.43 115.47 293.26 117.26 293.15 117.39 294.74 121.02 294.54 121.16 296.09 126.37 295.78 126.47 295.81 126.56 297.36 128.64 297.25 128.71 298.82 128.7 299.38 128.57 301.11 128.6 301.58 128.53 303.63 128.56 304 128.76 305.01 128.99 305.68 129.24 306.74 129.67 313.07 129.81 314.64 130.38 322.27 Z" id="57"/>
<path d="M 120.07 326.46 118.08 328.73 116.98 329.93 110.22 337.5 109.49 336.99 109.09 336.75 105.13 334.02 103.88 333.22 102.72 332.42 99.53 330.35 98.21 329.39 96.84 328.49 95.67 327.67 92.73 325.72 89.67 323.63 87.59 322.29 87.83 321.99 88.11 321.56 93.28 315.58 97.36 310.92 99.47 312.34 101.33 313.64 102.62 314.67 103.6 315.3 104.11 315.49 105.04 316.01 105.36 316.29 108.17 318.28 112.28 321.04 114.99 322.98 116.59 324.04 118.65 325.55 120.07 326.46 Z" id="58"/>
<path d="M 124.96 253.96 125.46 260.63 120.11 260.92 110.57 261.57 109.38 248.15 109.3 246.53 108.87 240.89 108.85 240.12 108.71 238.9 108.57 237.08 109.66 236.85 110.66 236.68 112.25 236.53 116.22 236.3 116.7 236.26 117.39 236.14 118.14 235.9 118.74 235.65 120.18 234.88 121.15 234.54 121.46 234.45 122.29 234.26 123.32 234.16 123.36 235.86 124 243.37 124.16 245.67 124.73 252.53 124.86 253.16 124.96 253.96 Z" id="59"/>
<path d="M 104.86 284.36 103.02 284.5 100.35 284.63 99.86 284.56 99.56 284.46 99.38 284.32 98.53 284.27 98.97 285 99.35 285.73 98.55 285.47 98.04 285.34 97.73 285.28 97.22 285.23 90.96 285.4 90.45 285.39 89.87 285.36 84.72 284.9 84.74 284.8 84.98 284.22 85.03 283.86 85.32 283.06 85.38 281.96 85.74 280.75 86.22 279.85 86.86 278.81 86.62 277.83 86.18 276.34 86.14 275.56 86.15 274.36 92.55 273.96 93.09 273.98 94.91 273.88 103.98 273.35 104.27 276.75 104.86 284.36 Z" id="60"/>
<path d="M 170.28 311.41 171.71 311.69 173.26 312.05 172.78 313.66 172.23 315.3 171.29 318.54 170.78 320.16 170.32 321.79 169.31 325.01 167.38 331.5 155.04 328.7 153.31 328.33 149.24 327.39 150.32 323.76 147.56 323.11 144.03 322.33 141.13 321.66 140.74 321.63 141.61 318.71 142.6 315.61 143.09 313.85 143.86 311.48 143.94 311 143.92 310.64 144.3 310.66 144.18 309.65 144.38 309.59 144.52 309.32 145.08 307.41 146.11 304.17 147.6 299.31 148.06 297.7 149.91 298.16 150.65 298.44 152.89 298.38 153.37 298.84 154.75 299.25 152.33 307.3 162.21 309.57 168.8 311.03 170.28 311.41 Z" id="61"/>
<path d="M 148.92 294.87 148.45 296.35 148.06 297.7 147.6 299.31 146.11 304.17 145.08 307.41 144.52 309.32 144.38 309.59 144.18 309.65 144.3 310.66 143.92 310.64 143.94 311 143.86 311.48 143.09 313.85 142.6 315.61 141.61 318.71 140.74 321.63 130.38 322.27 129.81 314.64 129.67 313.07 129.24 306.74 128.99 305.68 128.76 305.01 128.56 304 128.53 303.63 128.6 301.58 128.57 301.11 128.7 299.38 128.71 298.82 128.64 297.25 126.56 297.36 126.47 295.81 126.37 295.78 121.16 296.09 121.02 294.54 117.39 294.74 117.26 293.15 115.47 293.26 113.31 293.43 113.27 293.15 113.15 292.33 113.07 292.23 112.71 291.95 112.56 291.9 112.22 291.88 111.29 291.92 109.5 292.05 109.36 290.46 107.56 290.6 104.3 290.72 104.08 287.88 99.71 286.37 99.35 285.73 98.97 285 98.53 284.27 99.38 284.32 99.56 284.46 99.86 284.56 100.35 284.63 103.02 284.5 104.86 284.36 105.02 286.49 105.76 286.74 107.45 287.41 107.89 287.55 108.79 287.71 109.7 287.82 110.98 287.81 111.04 288.77 113.42 288.65 116.87 288.43 117.58 288.62 117.93 288.56 118.2 288.36 118.4 288.3 124.06 288.01 127.66 287.74 129.91 287.64 135.01 287.31 136.96 287.23 139.72 287.07 140.25 287.05 140.9 287.09 141.51 286.93 141.84 287 142.43 287.36 148.66 280.43 148.66 280.85 148.94 284.12 149.06 286.51 149.56 293.29 148.92 294.87 Z" id="62"/>
<path d="M 121.61 388.79 120.31 390.25 116.19 394.18 112.14 396.96 107.37 399.58 106.29 400.05 103.99 396.54 103.05 395.46 102.88 395.31 100.62 392.27 101.99 391.42 100.93 390.18 104.01 388.2 102.92 386.93 101.82 385.74 100.78 384.48 102.35 383.52 105.32 381.35 104.84 380.92 105.33 379.22 106.83 380.69 107.75 381.4 108.55 382.14 109.83 383.17 110.3 383.66 114.32 387.29 115.36 387.54 115.92 387.53 117.37 387.7 121.61 388.79 Z" id="63"/>
<path d="M 196.24 396.74 198.61 398.2 199.8 399.02 200.42 399.51 201.62 400.57 202.49 401.18 203.98 402.12 204.5 402.67 204.85 402.98 205.58 403.48 207.3 404.51 207.74 404.74 208.48 405.01 209.25 405.33 212.53 407.08 213.6 407.7 214.7 408.36 217.17 409.92 222.01 413.15 223.75 414.27 224.73 414.85 225.88 415.28 226.85 415.55 227.86 415.65 229.47 415.9 230.79 415.28 231.54 415.25 232.78 415.28 234.11 415.36 234.81 415.51 235.43 415.71 235.77 415.86 236.53 416.27 237.28 416.87 239.03 418.7 242.07 421.86 242.01 422.65 238.31 421.96 235.62 446.06 215.98 433.14 215.52 441.61 206.92 436.72 206.97 434.72 190.66 419.37 157.46 387.84 158.21 386.39 158.68 385.3 158.88 384.71 159.11 383.75 159.34 381.73 160.36 381.79 162.67 382.09 163.92 382.14 165.02 382.24 166.46 382.57 166.98 382.73 167.69 383.07 168.57 383.71 169 383.99 169.55 384.29 170.16 384.55 170.73 384.69 171.3 384.78 172.13 385.05 175.14 386.29 181.18 388.84 182.7 389.52 184.33 390.17 186.77 391.22 189.21 392.56 189.81 392.92 190.25 393.29 191.1 394.26 191.38 394.51 191.55 394.59 191.76 394.63 192.8 394.66 193.15 394.78 196.24 396.74 Z" id="64"/>
<path d="M 82.48 392.86 78.91 394.19 74.99 395.35 73.9 395.63 71.85 396.08 71.22 396.18 70.01 396.29 64.78 396.66 61.26 396.95 60.8 392.51 60.62 390.35 60.37 388.23 65.6 387.8 67.39 387.7 69.05 387.56 70.33 387.42 71.64 387.17 73.28 386.69 74.67 386.23 78.66 384.75 80.6 388.68 81.75 391.36 82.48 392.86 Z" id="65"/>
<path d="M 102.72 332.42 99.52 336.02 98.13 337.58 96.89 338.88 93.64 342.62 92.11 344.3 90.35 346.13 87.72 349.16 86.56 350.61 86.42 350.73 85.37 348.78 84.99 348.25 84.6 347.88 83.9 347.33 82.61 346.62 82.22 346.23 80.01 344.67 77.51 342.8 76.13 341.9 72.53 339.26 73.12 338.59 74.11 337.61 79.52 331.47 80.79 329.98 85.5 324.58 87.4 322.51 87.59 322.29 89.67 323.63 92.73 325.72 95.67 327.67 96.84 328.49 98.21 329.39 99.53 330.35 102.72 332.42 Z" id="66"/>
<path d="M 60.37 388.23 60.62 390.35 60.8 392.51 61.26 396.95 55.59 397.4 53.87 397.59 50.9 397.75 47.75 397.64 46.23 397.51 44.58 397.5 43.58 397.4 39.95 396.76 40.14 395.81 40.74 393.51 41.67 390.21 41.87 389.18 43.03 385 43.44 383.33 44.67 378.91 45.42 375.97 46.98 376.23 47.33 376.27 48.76 376.32 50.26 376.45 51.95 376.47 55.22 376.18 56.96 376.08 59.08 375.89 59.37 378.88 59.71 381.88 59.8 383.43 59.96 384.92 60.37 388.23 Z" id="67"/>
<path d="M 498.84 205.83 498.47 206.47 496.93 209.75 496.82 210.1 495.91 211.04 495.36 211.02 495.01 211.12 494.76 211.49 494.75 212.05 493.47 212.82 492.71 213.39 490.64 215.26 490.21 215.43 489.68 215.81 489.15 216.3 488.8 216.43 488.8 216.56 488.87 216.71 488.64 216.99 488.15 216.99 487.29 217.52 484.28 218.83 483.86 218.93 483.18 219.32 481.74 220.23 481.21 220.62 480.91 220.89 480.63 221.37 480.12 221.95 479.54 222.53 479.04 222.89 478.68 223.23 478.38 223.45 478.03 223.6 476.04 225.37 475.3 225.93 474.57 226.44 474.05 226.67 473.22 227.23 472.94 227.49 472.88 227.81 472.56 228.18 471.7 228.77 470.64 229.63 470.01 230.23 468.66 231.91 468.31 232.27 467.96 232.46 467.61 232.48 466.89 233.58 465.65 235.02 465.72 235.26 465.69 235.43 465.47 235.49 462.69 238.04 462.59 238.43 462.61 238.69 462.68 238.91 462.14 239.81 461.81 240.05 461.76 240.29 461.3 241.11 460.68 242.77 460.4 243.03 460 243.17 458.86 244.53 458.31 245.95 457.99 246.19 457.71 246.49 456.41 248.19 455.09 249.74 454.76 250.06 454.54 250.34 454.53 250.68 454.3 250.96 453.92 251.26 453.41 252.19 452.96 252.55 452.65 252.98 451.94 254.17 451.23 254.94 450.85 255.02 450.5 255.3 450.49 255.76 450.32 256.06 449.86 256.44 449.68 257.05 449.5 257.44 449.09 257.82 447.45 259.67 447.07 260.01 446.69 260.23 446.44 260.27 445.85 259.87 445.23 259.8 444.61 259.77 443.83 260.06 442.75 260.38 442.1 260.85 441.32 261.47 441.02 261.66 440.64 262.07 440.3 262.63 439.44 263.81 439.18 264.37 438.92 265.04 438.74 265.71 438.78 266.06 439.08 266.45 439.42 267.04 439.46 267.33 439.71 267.74 439.95 268.26 439.97 268.55 439.84 269.04 439.55 269.74 439.3 270.21 438.3 271.54 437.65 272.36 436.54 273.3 436.13 273.51 434.85 274.11 433.58 274.6 432.35 274.97 430.27 275.84 429.84 276.11 429.48 276.46 429.1 277.49 429.19 278.17 429.41 278.71 429.85 279.28 430.65 280.15 432.19 281.11 436.34 283.39 437.32 284.07 437.89 284.62 438.28 285.19 438.54 285.8 438.68 286.73 438.44 287.66 438.08 288.35 437.3 289.23 434.7 291.51 433.72 292.12 432.47 292.61 431.57 292.75 430.76 292.84 429.77 292.77 428.85 292.57 428.01 292.15 427.35 291.67 426.66 290.94 426.17 290.26 425.33 288.36 424.99 287.47 424.75 286.92 424.24 285.99 423.71 285.26 423.09 284.76 422.37 284.45 421.78 284.29 421.03 284.37 420.25 284.66 419.38 285.11 418.67 285.53 418.07 286.13 417.46 286.99 416.94 288.07 416.53 289.13 416.27 289.91 416.01 290.34 415.43 291.14 413.96 292.64 413.23 293.26 408.32 295.03 407.32 295.3 406.35 295.35 405.36 295.28 404.59 294.92 403.85 294.35 403.46 293.87 402.54 292.3 402.2 291.62 401.83 291.1 401.54 290.51 401.15 289.96 400.59 289.26 399.19 287.83 398.9 287.35 398.78 286.92 398.81 286.55 399.76 284.52 399.9 283.5 399.78 283.07 399.08 281.89 398.91 281.37 398.84 280.95 398.95 280.13 398.98 279.63 398.82 279.09 398.42 278.67 397.98 278.36 396.77 278.02 396.02 277.93 395.37 277.79 394.06 277.39 393.42 277.05 392.97 276.7 392.68 276.24 392.14 274.31 391.9 273.74 391.65 273.28 391.16 272.86 389.87 272.26 387.25 270.96 386.44 270.47 385.62 270.09 384.98 269.74 384.06 269.38 383.49 269.2 382.75 269.11 382.25 269.14 381.8 269.29 381.45 269.57 380.21 270.86 379.7 271.13 379.33 271.3 378.78 271.43 377.68 271.44 377.06 271.39 376.59 271.25 375.97 270.98 374.14 270.36 373.14 270.13 372.17 269.97 368.63 269.04 367.21 268.89 366.01 269.12 365.51 269.29 363.65 270.13 362.4 270.75 360.39 271.62 359.59 271.91 358.52 272.14 357.85 272.15 357.1 272.21 356.57 272.38 356.17 272.61 355.54 273.15 355 274.16 354.74 274.83 354.26 275.93 353.97 276.41 353.64 277.23 353.48 277.64 352.93 279.63 352.78 280.06 352.55 280.45 352.22 280.77 351.89 280.9 351.37 281 350.99 281.04 350.57 281.21 349.84 281.7 349.43 282.13 348.68 282.71 348.2 282.83 347.81 282.87 347.33 282.84 346.86 282.75 346.36 282.62 345.79 282.55 344.99 282.56 344.31 282.63 343.22 282.85 342.69 282.99 342.36 283.16 341.99 283.47 341.66 283.81 341.01 284.57 340.66 284.89 340.18 285.2 339.77 285.39 339.16 285.42 338.07 285.06 337.54 284.98 337.22 285.05 336.86 285.24 336.49 285.58 336.22 285.91 335.84 286.22 334.84 286.86 334.09 287.46 333.81 287.82 332.94 289.36 332.65 289.72 332.3 290.08 331.35 290.94 330.84 291.24 330.19 291.45 329.65 291.55 328.47 291.59 326.74 291.6 326.3 291.67 325.81 291.79 325.33 291.98 324.93 292.2 324.23 292.46 323.26 292.73 322.84 292.8 322.42 293.02 321.77 293.56 321.4 293.69 321 293.73 320.24 294.04 319.82 294.18 319.47 294.44 319.19 294.76 318.81 295.36 318.48 295.77 318.04 296.11 317.6 296.29 315.37 296.77 314.72 297.02 314.12 297.34 313.67 297.75 313.36 298.11 313.24 298.52 313.17 299 313.36 299.97 313.63 300.65 313.89 301.68 313.91 302.13 313.86 302.47 313.64 303.07 313.29 303.41 312.94 303.54 311.4 303.25 310.89 303.1 309.9 303.03 309.39 302.92 308.31 302.79 306.97 302.52 304.95 301.93 304.05 301.7 303.54 301.65 303.15 301.65 300.2 302.83 299.46 303.04 297.75 303.36 297.35 303.34 296.55 302.85 296.18 302.7 295.75 302.64 295.35 302.65 294.96 302.71 293.94 303.08 292.89 303.37 292.5 303.41 292.02 303.4 291.46 303.22 291.03 303.11 290.52 302.78 289.82 301.91 289.21 301.02 288.89 300.49 288.69 299.99 288.34 298.35 288.2 297.23 288.2 296.72 287.99 295.35 287.86 295.07 287.58 294.76 287.15 294.38 286.78 294.17 286.51 294.07 286.07 294.02 285.12 294.12 284.75 294.29 284.45 294.55 284.12 294.93 283.86 295.17 283.09 295.64 282.3 295.88 281.84 295.91 280.89 295.84 280.37 295.61 279.43 294.8 278.79 294.11 277.67 293.01 276.19 291.79 275.23 290.93 274.73 290.53 273.93 289.97 273.54 289.79 273.17 289.7 272.34 289.74 271.55 289.91 271.23 289.86 270.9 289.78 270.17 289.25 268.98 288.49 268.06 288.04 267.49 287.79 266.98 287.65 265.9 287.15 264.44 286.17 264.14 285.81 263.92 285.42 263.9 285.02 264.07 284.28 264.1 283.87 263.92 283.21 263.74 282.97 263.49 282.72 263.1 282.46 262.76 282.29 262.05 282.02 261.7 281.96 261.19 281.95 260.78 281.99 260.31 281.96 259.83 282.02 259.46 282.12 258.71 282.41 257.94 282.93 257.24 283.58 256.51 284.4 256.09 285 255.55 285.62 255.01 286.36 254.64 286.69 253.4 287.57 252.89 287.88 252.51 288.2 252 288.54 250.92 289.41 250.57 290.09 250.42 290.29 250.16 291.04 249.88 291.58 249.52 292.4 249.24 292.74 248.77 293.01 248.17 293.29 247.64 293.51 247.03 293.7 247.09 294.34 246.99 294.93 246.7 295.82 246.63 296.19 246.65 296.65 245.9 296.82 244.97 297.25 243.94 298.09 242.53 299.97 239.07 305.97 239.02 306.69 239.06 307.25 238.31 307.73 237.34 308.12 236.68 309.04 236.18 310.02 228.67 317.29 221.09 314.49 221.11 314.45 211.74 311.07 210.11 310.45 207.14 309.4 206.45 309.21 204.47 308.78 201.3 308.03 194.44 306.49 187.57 304.91 187.12 304.76 186.45 303.82 185.35 303.55 185.53 303.02 185.8 301.83 186.19 299.81 187.57 295.47 186.01 289.24 179.67 268.46 178.78 266.1 177.08 260.53 177.86 260.32 181.24 259.54 186.61 258.16 187.28 257.94 188.07 257.76 189.09 257.63 198.64 256.58 202.14 256.24 203.95 256.02 210.02 255.39 219.92 254.3 221.25 254.09 236.49 251.39 240.8 250.66 247.55 249.42 248.71 249.25 252.2 248.58 255.86 247.77 268.13 244.73 268.81 244.54 288.6 239.63 291.88 238.76 293.76 238.2 296.18 237.42 312.34 231.75 313.22 231.41 331.61 224.96 334.22 224.02 337.09 223.06 339.58 222.24 352.99 217.99 358.33 216.24 373.6 211.39 374.98 210.91 377.37 209.92 378.82 209.21 379 209.15 379.13 209.14 380.3 208.48 381.16 207.92 382.85 206.72 389.51 201.85 391.11 200.82 414.61 186.86 416.76 185.49 418.25 184.43 423.3 180.63 424.61 179.62 425.22 179.11 425.69 178.68 426.72 177.6 427.36 176.81 428.1 175.78 428.38 175.33 429.02 174.17 429.31 173.56 429.91 172.17 430.35 170.45 430.46 169.78 430.67 167.79 431.04 163.38 431.18 162.49 431.46 161.59 431.94 160.48 432.33 159.79 432.83 159.05 433.15 158.62 433.57 158.17 434.85 156.95 435.37 156.53 435.88 156.18 436.69 155.69 437.82 155.13 438.33 154.93 439.57 154.51 440.23 154.34 441.01 154.19 442.32 154.04 442.62 155.57 443.12 156.51 443.62 156.85 444.53 156.9 448.32 156.75 453.64 156.63 455.28 156.7 456.91 156.86 458.67 156.46 460.91 157.42 462.79 159.5 465.4 162.03 467.9 164.22 471.53 167.73 475.95 172.09 476.66 172.84 477 173.29 477.19 173.65 477.31 174.28 477.43 175.32 477.71 176.74 478.11 179.21 479.67 186.97 483.23 205.14 483.84 206.65 484.38 206.47 493.75 202.52 494.35 202.29 495.4 201.77 496.52 201.48 497.86 201.63 498.67 202.06 498.74 203.22 498.72 204.57 498.84 205.83 Z" id="68"/>
<path d="M 137.62 338.37 134.29 338.96 130.39 341.15 127.75 345.36 127.9 349.1 127.9 351.47 121.7 351.66 119.8 351.75 119.32 351.35 118.73 350.94 114.77 348.44 115.92 347.12 105.92 340.35 106.94 339.12 109.09 336.75 109.49 336.99 110.22 337.5 116.98 329.93 118.08 328.73 120.07 326.46 123.1 328.56 124.41 329.54 125.89 330.5 130.58 333.74 131.51 335.25 137.62 338.37 Z" id="69"/>
<path d="M 405.95 41.99 406 42.04 405.05 43.21 405.89 44.18 411.47 54.78 414.57 61.05 417.1 65.67 420.64 73.18 421.68 75.14 421.94 75.75 422.43 76.52 424.45 80.02 425.12 80.15 426.71 80.24 428.07 80.23 428.53 81.99 430.42 90.7 431.27 94.97 431.83 95.54 432.2 99.21 434.59 111.93 434.76 112.53 435.92 119.06 436.53 123.88 442.04 152.17 442.12 152.83 442.32 154.04 441.01 154.19 440.23 154.34 439.57 154.51 438.33 154.93 437.82 155.13 436.69 155.69 435.88 156.18 435.37 156.53 434.85 156.95 433.57 158.17 433.15 158.62 432.83 159.05 432.33 159.79 431.94 160.48 431.46 161.59 431.18 162.49 431.04 163.38 430.67 167.79 430.46 169.78 430.35 170.45 429.91 172.17 429.31 173.56 429.02 174.17 428.38 175.33 428.1 175.78 427.36 176.81 426.72 177.6 425.69 178.68 425.22 179.11 424.61 179.62 423.3 180.63 418.25 184.43 416.76 185.49 414.61 186.86 391.11 200.82 389.51 201.85 382.85 206.72 381.16 207.92 380.3 208.48 379.13 209.14 379 209.15 378.82 209.21 377.37 209.92 374.98 210.91 373.6 211.39 358.33 216.24 352.99 217.99 339.58 222.24 337.09 223.06 334.22 224.02 331.61 224.96 313.22 231.41 313.28 227.29 313.25 222.44 313.42 215.99 313.39 210.26 313.46 208.02 313.59 206.47 314.37 201.4 314.56 199.74 314.61 199 314.6 198.19 314.39 195.45 313.96 191.49 313.93 190.81 313.89 189.35 313.94 187.65 314.03 186.99 314.03 186.18 313.42 179.89 312.21 167.8 311.91 164.6 311.74 162.31 311.67 161.76 311.54 161.12 311.37 160.74 311.11 160.27 310.86 159.94 310.61 159.65 309.78 158.87 308.24 157.65 306.12 155.87 305.71 156.22 304.9 155.55 305.35 155.18 305.33 155.16 306.03 154.73 306.46 154.59 306.84 154.38 307.66 153.72 308.13 153.05 308.36 152.62 308.62 152.33 309.34 151.78 310.79 150.53 311.11 150.18 311.69 149.73 312.1 149.3 312.26 149.05 312.69 148.81 312.89 148.8 313 148.74 313.11 148.39 313.46 147.93 313.88 147.7 314.15 147.44 315.59 146.33 317.06 145.09 318.46 144.06 319.05 143.59 320.68 142.13 322.67 140.3 323.02 140.06 323.97 139.09 325.92 137.36 326.38 136.9 326.9 136.45 328.13 135.29 329.12 134.3 330.77 132.72 332.72 130.78 337.09 126.26 340.29 122.81 342.99 119.75 345.87 116.41 348.7 113.08 352.34 108.66 355.71 104.39 360.67 98.26 364.42 93.54 366.2 91.38 366.46 91 371.57 84.63 372.17 83.92 376.53 78.42 384.25 68.76 390.67 60.76 391.68 59.54 393.04 57.77 394.38 56.15 402.18 46.43 402.76 45.63 402.93 45.2 403.87 43.96 404.8 42.84 405.07 42.82 405.18 42.74 405.8 41.97 405.86 41.94 405.95 41.99 Z" id="70"/>
<path d="M 267.51 231.81 262.51 232.81 259.3 233.51 252.76 234.78 250.15 234.99 248.7 235.06 247.49 235.07 245.68 235.15 242.67 235.31 241.58 235.43 240.84 235.54 236.79 236.05 235.55 236.24 230.41 236.86 228.29 237.16 226.48 237.51 224.38 238.17 223.15 238.49 219.66 239.49 210.54 240.4 202.43 241.16 200.98 240.94 200.23 241.35 199 241.43 197.33 241.89 197.03 239 197.03 238.18 197.1 237.69 197.26 237.02 197.37 236.69 197.83 235.68 198.65 234.71 199.63 233.86 200.25 233.42 200.82 233.15 201.87 232.75 203.64 232.31 204.83 232.18 207.08 231.8 214.58 230.5 220.32 229.44 222.13 229.02 225.27 228.09 226.46 227.66 228.81 226.73 234.75 224.3 236.38 223.69 241.93 221.37 246.45 219.58 247.94 218.91 256.05 215.63 260.11 221.21 263.45 225.66 264.35 226.95 265.25 228.17 267.15 230.96 267.45 231.49 267.51 231.81 Z" id="71"/>
<path d="M 39.95 396.76 43.58 397.4 44.58 397.5 46.23 397.51 47.75 397.64 50.9 397.75 53.87 397.59 55.59 397.4 61.26 396.95 61.39 398.54 61.69 401.39 61.87 402.65 62.02 404.1 61.64 404.17 61.68 404.66 61.65 405.1 61.69 405.27 61.79 405.37 62.12 405.51 62.21 405.63 62.27 405.84 62.4 407.52 62.43 408.89 62.22 409.61 61.98 414.2 61.17 414.5 56.72 415.71 52.34 416.14 46.89 416.19 41.8 416.14 36.17 415.67 29.3 414.41 23.44 413.21 18.18 411.75 13.24 409.61 12.68 409.29 16.33 402.27 16.99 401.52 17.1 401.3 17.12 401.14 16.89 400.5 16.85 400.11 16.88 399.82 16.98 399.53 17.11 399.36 17.79 398.84 18.02 398.62 22.05 400.33 23.87 401.01 25.2 398.11 27.01 393.9 29.83 394.86 32.36 395.52 33.92 395.78 35.35 396.08 36.79 396.34 38.39 396.53 39.95 396.76 Z" id="72"/>
</g>
</svg>